<mxfile host="Electron" modified="2024-04-05T09:09:26.575Z" agent="Mozilla/5.0 (Windows NT 10.0; Win64; x64) AppleWebKit/537.36 (KHTML, like Gecko) draw.io/24.1.0 Chrome/120.0.6099.109 Electron/28.1.0 Safari/537.36" etag="vqn1sBCY7_ynSJp1qs3m" version="24.1.0" type="device" pages="2">
  <diagram name="Версия 1" id="LDotNvmuVU3kYXkOHpVw">
    <mxGraphModel dx="1434" dy="844" grid="0" gridSize="10" guides="1" tooltips="1" connect="1" arrows="1" fold="1" page="1" pageScale="1" pageWidth="827" pageHeight="1169" math="0" shadow="0">
      <root>
        <mxCell id="ioHsVVSMv6HEaXAQA3IK-0" />
        <mxCell id="ioHsVVSMv6HEaXAQA3IK-1" parent="ioHsVVSMv6HEaXAQA3IK-0" />
        <mxCell id="kXp9v7Pjp5QSQNM3Q7uu-96" value="" style="rounded=0;whiteSpace=wrap;html=1;dashed=1;dashPattern=1 2;fillColor=none;" parent="ioHsVVSMv6HEaXAQA3IK-1" vertex="1">
          <mxGeometry x="32" y="310" width="748" height="428" as="geometry" />
        </mxCell>
        <mxCell id="ioHsVVSMv6HEaXAQA3IK-3" value="Драйвер&amp;nbsp;&lt;div&gt;USB/SPI&lt;/div&gt;" style="rounded=0;whiteSpace=wrap;html=1;" parent="ioHsVVSMv6HEaXAQA3IK-1" vertex="1">
          <mxGeometry x="80" y="400" width="80" height="60" as="geometry" />
        </mxCell>
        <mxCell id="ioHsVVSMv6HEaXAQA3IK-4" value="ПК" style="rounded=0;whiteSpace=wrap;html=1;" parent="ioHsVVSMv6HEaXAQA3IK-1" vertex="1">
          <mxGeometry x="220" y="50" width="120" height="110" as="geometry" />
        </mxCell>
        <mxCell id="ioHsVVSMv6HEaXAQA3IK-5" value="ПО_ПК" style="rounded=1;whiteSpace=wrap;html=1;" parent="ioHsVVSMv6HEaXAQA3IK-1" vertex="1">
          <mxGeometry x="255" y="50" width="55" height="30" as="geometry" />
        </mxCell>
        <mxCell id="ioHsVVSMv6HEaXAQA3IK-6" value="МК&lt;div&gt;(STM)&lt;/div&gt;" style="rounded=0;whiteSpace=wrap;html=1;" parent="ioHsVVSMv6HEaXAQA3IK-1" vertex="1">
          <mxGeometry x="220" y="390" width="120" height="180" as="geometry" />
        </mxCell>
        <mxCell id="ioHsVVSMv6HEaXAQA3IK-7" value="Ключи&amp;nbsp;&lt;div&gt;&lt;span style=&quot;background-color: initial;&quot;&gt;питания ДТ&lt;/span&gt;&lt;/div&gt;&lt;div&gt;№1..4&lt;span style=&quot;background-color: initial;&quot;&gt;&lt;br&gt;&lt;/span&gt;&lt;/div&gt;" style="rounded=0;whiteSpace=wrap;html=1;" parent="ioHsVVSMv6HEaXAQA3IK-1" vertex="1">
          <mxGeometry x="510" y="380" width="90" height="50" as="geometry" />
        </mxCell>
        <mxCell id="ioHsVVSMv6HEaXAQA3IK-8" value="АЦП №1&lt;div&gt;8 каналов&lt;/div&gt;" style="rounded=0;whiteSpace=wrap;html=1;" parent="ioHsVVSMv6HEaXAQA3IK-1" vertex="1">
          <mxGeometry x="440" y="510" width="80" height="40" as="geometry" />
        </mxCell>
        <mxCell id="ioHsVVSMv6HEaXAQA3IK-9" value="ДТ-500 №1...8" style="rounded=0;whiteSpace=wrap;html=1;" parent="ioHsVVSMv6HEaXAQA3IK-1" vertex="1">
          <mxGeometry x="690" y="500" width="80" height="40" as="geometry" />
        </mxCell>
        <mxCell id="ioHsVVSMv6HEaXAQA3IK-12" value="" style="endArrow=classic;html=1;rounded=0;entryX=0;entryY=0.25;entryDx=0;entryDy=0;fontColor=#FF0000;strokeColor=#FF0000;" parent="ioHsVVSMv6HEaXAQA3IK-1" target="ioHsVVSMv6HEaXAQA3IK-9" edge="1">
          <mxGeometry width="50" height="50" relative="1" as="geometry">
            <mxPoint x="570" y="510" as="sourcePoint" />
            <mxPoint x="580" y="510" as="targetPoint" />
          </mxGeometry>
        </mxCell>
        <mxCell id="ioHsVVSMv6HEaXAQA3IK-14" value="" style="endArrow=classic;html=1;rounded=0;fontColor=#FF0000;strokeColor=#330000;" parent="ioHsVVSMv6HEaXAQA3IK-1" edge="1">
          <mxGeometry width="50" height="50" relative="1" as="geometry">
            <mxPoint x="690" y="530" as="sourcePoint" />
            <mxPoint x="520" y="530" as="targetPoint" />
          </mxGeometry>
        </mxCell>
        <mxCell id="ioHsVVSMv6HEaXAQA3IK-16" value="" style="endArrow=classic;html=1;rounded=0;fontColor=#FF0000;strokeColor=#FF0000;" parent="ioHsVVSMv6HEaXAQA3IK-1" edge="1">
          <mxGeometry width="50" height="50" relative="1" as="geometry">
            <mxPoint x="230" y="1005" as="sourcePoint" />
            <mxPoint x="270" y="1005" as="targetPoint" />
          </mxGeometry>
        </mxCell>
        <mxCell id="ioHsVVSMv6HEaXAQA3IK-17" value="" style="endArrow=classic;html=1;rounded=0;fontColor=#FF0000;strokeColor=#FF0000;" parent="ioHsVVSMv6HEaXAQA3IK-1" edge="1">
          <mxGeometry width="50" height="50" relative="1" as="geometry">
            <mxPoint x="230" y="1045" as="sourcePoint" />
            <mxPoint x="270" y="1045" as="targetPoint" />
          </mxGeometry>
        </mxCell>
        <mxCell id="ioHsVVSMv6HEaXAQA3IK-18" value="Питание&amp;nbsp;&lt;div&gt;ДП&lt;/div&gt;" style="text;html=1;align=center;verticalAlign=middle;whiteSpace=wrap;rounded=0;" parent="ioHsVVSMv6HEaXAQA3IK-1" vertex="1">
          <mxGeometry x="270" y="990" width="60" height="30" as="geometry" />
        </mxCell>
        <mxCell id="ioHsVVSMv6HEaXAQA3IK-19" value="Инфосигналы" style="text;html=1;align=center;verticalAlign=middle;whiteSpace=wrap;rounded=0;" parent="ioHsVVSMv6HEaXAQA3IK-1" vertex="1">
          <mxGeometry x="270" y="1045" width="90" height="30" as="geometry" />
        </mxCell>
        <mxCell id="ioHsVVSMv6HEaXAQA3IK-20" value="" style="endArrow=none;html=1;rounded=0;strokeColor=#FF0000;" parent="ioHsVVSMv6HEaXAQA3IK-1" source="ioHsVVSMv6HEaXAQA3IK-60" edge="1">
          <mxGeometry width="50" height="50" relative="1" as="geometry">
            <mxPoint x="570" y="540" as="sourcePoint" />
            <mxPoint x="570" y="430" as="targetPoint" />
          </mxGeometry>
        </mxCell>
        <mxCell id="ioHsVVSMv6HEaXAQA3IK-30" value="" style="endArrow=none;html=1;rounded=0;strokeColor=#FF0000;" parent="ioHsVVSMv6HEaXAQA3IK-1" edge="1">
          <mxGeometry width="50" height="50" relative="1" as="geometry">
            <mxPoint x="560" y="570" as="sourcePoint" />
            <mxPoint x="560" y="430" as="targetPoint" />
          </mxGeometry>
        </mxCell>
        <mxCell id="ioHsVVSMv6HEaXAQA3IK-40" value="" style="endArrow=none;html=1;rounded=0;strokeColor=#FF0000;" parent="ioHsVVSMv6HEaXAQA3IK-1" edge="1">
          <mxGeometry width="50" height="50" relative="1" as="geometry">
            <mxPoint x="550" y="630" as="sourcePoint" />
            <mxPoint x="550" y="430" as="targetPoint" />
          </mxGeometry>
        </mxCell>
        <mxCell id="ioHsVVSMv6HEaXAQA3IK-50" value="" style="endArrow=none;html=1;rounded=0;strokeColor=#FF0000;" parent="ioHsVVSMv6HEaXAQA3IK-1" edge="1">
          <mxGeometry width="50" height="50" relative="1" as="geometry">
            <mxPoint x="540" y="690" as="sourcePoint" />
            <mxPoint x="540" y="429.04761904761904" as="targetPoint" />
          </mxGeometry>
        </mxCell>
        <mxCell id="ioHsVVSMv6HEaXAQA3IK-52" value="" style="endArrow=classic;html=1;rounded=0;entryX=0.5;entryY=0;entryDx=0;entryDy=0;strokeColor=#FF0000;strokeWidth=3;exitX=0.5;exitY=1;exitDx=0;exitDy=0;" parent="ioHsVVSMv6HEaXAQA3IK-1" source="kXp9v7Pjp5QSQNM3Q7uu-49" target="ioHsVVSMv6HEaXAQA3IK-7" edge="1">
          <mxGeometry width="50" height="50" relative="1" as="geometry">
            <mxPoint x="555" y="310" as="sourcePoint" />
            <mxPoint x="610" y="260" as="targetPoint" />
          </mxGeometry>
        </mxCell>
        <mxCell id="ioHsVVSMv6HEaXAQA3IK-54" value="АЦПx4" style="rounded=0;whiteSpace=wrap;html=1;" parent="ioHsVVSMv6HEaXAQA3IK-1" vertex="1">
          <mxGeometry x="300" y="445" width="40" height="20" as="geometry" />
        </mxCell>
        <mxCell id="ioHsVVSMv6HEaXAQA3IK-56" value="" style="endArrow=classic;html=1;rounded=0;strokeColor=#FF0000;dashed=1;" parent="ioHsVVSMv6HEaXAQA3IK-1" edge="1">
          <mxGeometry width="50" height="50" relative="1" as="geometry">
            <mxPoint x="570" y="440" as="sourcePoint" />
            <mxPoint x="440" y="440" as="targetPoint" />
          </mxGeometry>
        </mxCell>
        <mxCell id="ioHsVVSMv6HEaXAQA3IK-57" value="" style="endArrow=classic;html=1;rounded=0;strokeColor=#FF0000;dashed=1;" parent="ioHsVVSMv6HEaXAQA3IK-1" edge="1">
          <mxGeometry width="50" height="50" relative="1" as="geometry">
            <mxPoint x="150" y="1004.76" as="sourcePoint" />
            <mxPoint x="110" y="1005" as="targetPoint" />
          </mxGeometry>
        </mxCell>
        <mxCell id="ioHsVVSMv6HEaXAQA3IK-58" value="ВСК/ОС&lt;div&gt;Питания&lt;/div&gt;" style="text;html=1;align=center;verticalAlign=middle;whiteSpace=wrap;rounded=0;" parent="ioHsVVSMv6HEaXAQA3IK-1" vertex="1">
          <mxGeometry x="150" y="990" width="60" height="30" as="geometry" />
        </mxCell>
        <mxCell id="ioHsVVSMv6HEaXAQA3IK-59" value="" style="endArrow=none;html=1;rounded=0;strokeColor=#FF0000;" parent="ioHsVVSMv6HEaXAQA3IK-1" target="ioHsVVSMv6HEaXAQA3IK-60" edge="1">
          <mxGeometry width="50" height="50" relative="1" as="geometry">
            <mxPoint x="570" y="510" as="sourcePoint" />
            <mxPoint x="570" y="430" as="targetPoint" />
          </mxGeometry>
        </mxCell>
        <mxCell id="ioHsVVSMv6HEaXAQA3IK-60" value="" style="shape=waypoint;sketch=0;fillStyle=solid;size=6;pointerEvents=1;points=[];fillColor=none;resizable=0;rotatable=0;perimeter=centerPerimeter;snapToPoint=1;strokeColor=#FF0000;" parent="ioHsVVSMv6HEaXAQA3IK-1" vertex="1">
          <mxGeometry x="560" y="430" width="20" height="20" as="geometry" />
        </mxCell>
        <mxCell id="ioHsVVSMv6HEaXAQA3IK-61" value="" style="endArrow=classic;html=1;rounded=0;strokeColor=#FF0000;dashed=1;" parent="ioHsVVSMv6HEaXAQA3IK-1" edge="1">
          <mxGeometry width="50" height="50" relative="1" as="geometry">
            <mxPoint x="560" y="450" as="sourcePoint" />
            <mxPoint x="440" y="450" as="targetPoint" />
          </mxGeometry>
        </mxCell>
        <mxCell id="ioHsVVSMv6HEaXAQA3IK-62" value="" style="shape=waypoint;sketch=0;fillStyle=solid;size=6;pointerEvents=1;points=[];fillColor=none;resizable=0;rotatable=0;perimeter=centerPerimeter;snapToPoint=1;strokeColor=#FF0000;" parent="ioHsVVSMv6HEaXAQA3IK-1" vertex="1">
          <mxGeometry x="550" y="440" width="20" height="20" as="geometry" />
        </mxCell>
        <mxCell id="ioHsVVSMv6HEaXAQA3IK-63" value="" style="endArrow=classic;html=1;rounded=0;strokeColor=#FF0000;dashed=1;" parent="ioHsVVSMv6HEaXAQA3IK-1" edge="1">
          <mxGeometry width="50" height="50" relative="1" as="geometry">
            <mxPoint x="550" y="460" as="sourcePoint" />
            <mxPoint x="440" y="460" as="targetPoint" />
          </mxGeometry>
        </mxCell>
        <mxCell id="ioHsVVSMv6HEaXAQA3IK-64" value="" style="shape=waypoint;sketch=0;fillStyle=solid;size=6;pointerEvents=1;points=[];fillColor=none;resizable=0;rotatable=0;perimeter=centerPerimeter;snapToPoint=1;strokeColor=#FF0000;" parent="ioHsVVSMv6HEaXAQA3IK-1" vertex="1">
          <mxGeometry x="540" y="450" width="20" height="20" as="geometry" />
        </mxCell>
        <mxCell id="ioHsVVSMv6HEaXAQA3IK-65" value="" style="endArrow=classic;html=1;rounded=0;strokeColor=#FF0000;dashed=1;" parent="ioHsVVSMv6HEaXAQA3IK-1" edge="1">
          <mxGeometry width="50" height="50" relative="1" as="geometry">
            <mxPoint x="540" y="470" as="sourcePoint" />
            <mxPoint x="440" y="470" as="targetPoint" />
          </mxGeometry>
        </mxCell>
        <mxCell id="ioHsVVSMv6HEaXAQA3IK-66" value="" style="shape=waypoint;sketch=0;fillStyle=solid;size=6;pointerEvents=1;points=[];fillColor=none;resizable=0;rotatable=0;perimeter=centerPerimeter;snapToPoint=1;strokeColor=#FF0000;" parent="ioHsVVSMv6HEaXAQA3IK-1" vertex="1">
          <mxGeometry x="530" y="460" width="20" height="20" as="geometry" />
        </mxCell>
        <mxCell id="ioHsVVSMv6HEaXAQA3IK-68" value="&lt;div&gt;Разъём&lt;/div&gt;загрузки ПО" style="rounded=0;whiteSpace=wrap;html=1;" parent="ioHsVVSMv6HEaXAQA3IK-1" vertex="1">
          <mxGeometry x="200" y="280" width="80" height="60" as="geometry" />
        </mxCell>
        <mxCell id="kXp9v7Pjp5QSQNM3Q7uu-13" value="" style="endArrow=none;html=1;rounded=0;" parent="ioHsVVSMv6HEaXAQA3IK-1" edge="1">
          <mxGeometry width="50" height="50" relative="1" as="geometry">
            <mxPoint x="660" y="540" as="sourcePoint" />
            <mxPoint x="680" y="520" as="targetPoint" />
          </mxGeometry>
        </mxCell>
        <mxCell id="kXp9v7Pjp5QSQNM3Q7uu-14" value="8" style="text;html=1;align=center;verticalAlign=middle;whiteSpace=wrap;rounded=0;" parent="ioHsVVSMv6HEaXAQA3IK-1" vertex="1">
          <mxGeometry x="665" y="540" width="15" height="10" as="geometry" />
        </mxCell>
        <mxCell id="kXp9v7Pjp5QSQNM3Q7uu-17" value="ДТ-500 №9...16" style="rounded=0;whiteSpace=wrap;html=1;" parent="ioHsVVSMv6HEaXAQA3IK-1" vertex="1">
          <mxGeometry x="690" y="560" width="80" height="40" as="geometry" />
        </mxCell>
        <mxCell id="kXp9v7Pjp5QSQNM3Q7uu-18" value="" style="endArrow=classic;html=1;rounded=0;entryX=0;entryY=0.25;entryDx=0;entryDy=0;fontColor=#FF0000;strokeColor=#FF0000;" parent="ioHsVVSMv6HEaXAQA3IK-1" target="kXp9v7Pjp5QSQNM3Q7uu-17" edge="1">
          <mxGeometry width="50" height="50" relative="1" as="geometry">
            <mxPoint x="560" y="570" as="sourcePoint" />
            <mxPoint x="580" y="570" as="targetPoint" />
          </mxGeometry>
        </mxCell>
        <mxCell id="kXp9v7Pjp5QSQNM3Q7uu-19" value="" style="endArrow=classic;html=1;rounded=0;fontColor=#FF0000;strokeColor=#330000;" parent="ioHsVVSMv6HEaXAQA3IK-1" edge="1">
          <mxGeometry width="50" height="50" relative="1" as="geometry">
            <mxPoint x="690" y="590" as="sourcePoint" />
            <mxPoint x="520" y="590" as="targetPoint" />
          </mxGeometry>
        </mxCell>
        <mxCell id="kXp9v7Pjp5QSQNM3Q7uu-20" value="" style="endArrow=none;html=1;rounded=0;" parent="ioHsVVSMv6HEaXAQA3IK-1" edge="1">
          <mxGeometry width="50" height="50" relative="1" as="geometry">
            <mxPoint x="660" y="600" as="sourcePoint" />
            <mxPoint x="680" y="580" as="targetPoint" />
          </mxGeometry>
        </mxCell>
        <mxCell id="kXp9v7Pjp5QSQNM3Q7uu-21" value="8" style="text;html=1;align=center;verticalAlign=middle;whiteSpace=wrap;rounded=0;" parent="ioHsVVSMv6HEaXAQA3IK-1" vertex="1">
          <mxGeometry x="665" y="600" width="15" height="10" as="geometry" />
        </mxCell>
        <mxCell id="kXp9v7Pjp5QSQNM3Q7uu-22" value="ДТ-500 №17...24" style="rounded=0;whiteSpace=wrap;html=1;" parent="ioHsVVSMv6HEaXAQA3IK-1" vertex="1">
          <mxGeometry x="690" y="620" width="80" height="40" as="geometry" />
        </mxCell>
        <mxCell id="kXp9v7Pjp5QSQNM3Q7uu-23" value="" style="endArrow=classic;html=1;rounded=0;entryX=0;entryY=0.25;entryDx=0;entryDy=0;fontColor=#FF0000;strokeColor=#FF0000;" parent="ioHsVVSMv6HEaXAQA3IK-1" target="kXp9v7Pjp5QSQNM3Q7uu-22" edge="1">
          <mxGeometry width="50" height="50" relative="1" as="geometry">
            <mxPoint x="550" y="630" as="sourcePoint" />
            <mxPoint x="580" y="630" as="targetPoint" />
          </mxGeometry>
        </mxCell>
        <mxCell id="kXp9v7Pjp5QSQNM3Q7uu-24" value="" style="endArrow=classic;html=1;rounded=0;fontColor=#FF0000;strokeColor=#330000;" parent="ioHsVVSMv6HEaXAQA3IK-1" edge="1">
          <mxGeometry width="50" height="50" relative="1" as="geometry">
            <mxPoint x="690" y="650" as="sourcePoint" />
            <mxPoint x="520" y="650" as="targetPoint" />
          </mxGeometry>
        </mxCell>
        <mxCell id="kXp9v7Pjp5QSQNM3Q7uu-25" value="" style="endArrow=none;html=1;rounded=0;" parent="ioHsVVSMv6HEaXAQA3IK-1" edge="1">
          <mxGeometry width="50" height="50" relative="1" as="geometry">
            <mxPoint x="660" y="660" as="sourcePoint" />
            <mxPoint x="680" y="640" as="targetPoint" />
          </mxGeometry>
        </mxCell>
        <mxCell id="kXp9v7Pjp5QSQNM3Q7uu-26" value="8" style="text;html=1;align=center;verticalAlign=middle;whiteSpace=wrap;rounded=0;" parent="ioHsVVSMv6HEaXAQA3IK-1" vertex="1">
          <mxGeometry x="665" y="660" width="15" height="10" as="geometry" />
        </mxCell>
        <mxCell id="kXp9v7Pjp5QSQNM3Q7uu-27" value="ДТ-500 №25...32" style="rounded=0;whiteSpace=wrap;html=1;" parent="ioHsVVSMv6HEaXAQA3IK-1" vertex="1">
          <mxGeometry x="690" y="680" width="80" height="40" as="geometry" />
        </mxCell>
        <mxCell id="kXp9v7Pjp5QSQNM3Q7uu-28" value="" style="endArrow=classic;html=1;rounded=0;entryX=0;entryY=0.25;entryDx=0;entryDy=0;fontColor=#FF0000;strokeColor=#FF0000;" parent="ioHsVVSMv6HEaXAQA3IK-1" target="kXp9v7Pjp5QSQNM3Q7uu-27" edge="1">
          <mxGeometry width="50" height="50" relative="1" as="geometry">
            <mxPoint x="540" y="690" as="sourcePoint" />
            <mxPoint x="580" y="690" as="targetPoint" />
          </mxGeometry>
        </mxCell>
        <mxCell id="kXp9v7Pjp5QSQNM3Q7uu-29" value="" style="endArrow=classic;html=1;rounded=0;fontColor=#FF0000;strokeColor=#330000;" parent="ioHsVVSMv6HEaXAQA3IK-1" edge="1">
          <mxGeometry width="50" height="50" relative="1" as="geometry">
            <mxPoint x="690" y="710" as="sourcePoint" />
            <mxPoint x="520" y="710" as="targetPoint" />
          </mxGeometry>
        </mxCell>
        <mxCell id="kXp9v7Pjp5QSQNM3Q7uu-30" value="" style="endArrow=none;html=1;rounded=0;" parent="ioHsVVSMv6HEaXAQA3IK-1" edge="1">
          <mxGeometry width="50" height="50" relative="1" as="geometry">
            <mxPoint x="660" y="720" as="sourcePoint" />
            <mxPoint x="680" y="700" as="targetPoint" />
          </mxGeometry>
        </mxCell>
        <mxCell id="kXp9v7Pjp5QSQNM3Q7uu-31" value="8" style="text;html=1;align=center;verticalAlign=middle;whiteSpace=wrap;rounded=0;" parent="ioHsVVSMv6HEaXAQA3IK-1" vertex="1">
          <mxGeometry x="665" y="720" width="15" height="10" as="geometry" />
        </mxCell>
        <mxCell id="kXp9v7Pjp5QSQNM3Q7uu-32" value="АЦП №2&lt;div&gt;8 каналов&lt;/div&gt;" style="rounded=0;whiteSpace=wrap;html=1;" parent="ioHsVVSMv6HEaXAQA3IK-1" vertex="1">
          <mxGeometry x="440" y="570" width="80" height="40" as="geometry" />
        </mxCell>
        <mxCell id="kXp9v7Pjp5QSQNM3Q7uu-33" value="АЦП №3&lt;div&gt;8 каналов&lt;/div&gt;" style="rounded=0;whiteSpace=wrap;html=1;" parent="ioHsVVSMv6HEaXAQA3IK-1" vertex="1">
          <mxGeometry x="440" y="630" width="80" height="40" as="geometry" />
        </mxCell>
        <mxCell id="kXp9v7Pjp5QSQNM3Q7uu-34" value="АЦП №4&lt;div&gt;8 каналов&lt;/div&gt;" style="rounded=0;whiteSpace=wrap;html=1;" parent="ioHsVVSMv6HEaXAQA3IK-1" vertex="1">
          <mxGeometry x="440" y="690" width="80" height="40" as="geometry" />
        </mxCell>
        <mxCell id="kXp9v7Pjp5QSQNM3Q7uu-35" value="" style="endArrow=classic;html=1;rounded=0;fontColor=#FF0000;strokeColor=#330000;" parent="ioHsVVSMv6HEaXAQA3IK-1" source="kXp9v7Pjp5QSQNM3Q7uu-36" edge="1">
          <mxGeometry width="50" height="50" relative="1" as="geometry">
            <mxPoint x="440" y="529.76" as="sourcePoint" />
            <mxPoint x="340" y="530" as="targetPoint" />
          </mxGeometry>
        </mxCell>
        <mxCell id="kXp9v7Pjp5QSQNM3Q7uu-48" value="SPI&lt;div&gt;(4CS)&lt;/div&gt;" style="edgeLabel;html=1;align=center;verticalAlign=middle;resizable=0;points=[];" parent="kXp9v7Pjp5QSQNM3Q7uu-35" vertex="1" connectable="0">
          <mxGeometry x="-0.0923" y="-1" relative="1" as="geometry">
            <mxPoint x="-3" y="-19" as="offset" />
          </mxGeometry>
        </mxCell>
        <mxCell id="kXp9v7Pjp5QSQNM3Q7uu-37" value="" style="endArrow=classic;html=1;rounded=0;fontColor=#FF0000;strokeColor=#330000;startArrow=none;startFill=0;endFill=1;" parent="ioHsVVSMv6HEaXAQA3IK-1" source="kXp9v7Pjp5QSQNM3Q7uu-36" edge="1">
          <mxGeometry width="50" height="50" relative="1" as="geometry">
            <mxPoint x="270" y="529.76" as="sourcePoint" />
            <mxPoint x="440" y="529.76" as="targetPoint" />
          </mxGeometry>
        </mxCell>
        <mxCell id="kXp9v7Pjp5QSQNM3Q7uu-36" value="" style="shape=waypoint;sketch=0;fillStyle=solid;size=6;pointerEvents=1;points=[];fillColor=none;resizable=0;rotatable=0;perimeter=centerPerimeter;snapToPoint=1;strokeColor=#330000;" parent="ioHsVVSMv6HEaXAQA3IK-1" vertex="1">
          <mxGeometry x="390" y="520" width="20" height="20" as="geometry" />
        </mxCell>
        <mxCell id="kXp9v7Pjp5QSQNM3Q7uu-39" value="" style="endArrow=none;html=1;rounded=0;fontColor=#FF0000;strokeColor=#330000;exitDx=0;exitDy=0;endFill=0;" parent="ioHsVVSMv6HEaXAQA3IK-1" source="kXp9v7Pjp5QSQNM3Q7uu-44" target="kXp9v7Pjp5QSQNM3Q7uu-36" edge="1">
          <mxGeometry width="50" height="50" relative="1" as="geometry">
            <mxPoint x="410" y="540" as="sourcePoint" />
            <mxPoint x="280" y="539.76" as="targetPoint" />
            <Array as="points" />
          </mxGeometry>
        </mxCell>
        <mxCell id="kXp9v7Pjp5QSQNM3Q7uu-40" value="" style="endArrow=none;html=1;rounded=0;fontColor=#FF0000;strokeColor=#330000;exitDx=0;exitDy=0;endFill=0;" parent="ioHsVVSMv6HEaXAQA3IK-1" source="kXp9v7Pjp5QSQNM3Q7uu-46" edge="1">
          <mxGeometry width="50" height="50" relative="1" as="geometry">
            <mxPoint x="440" y="650" as="sourcePoint" />
            <mxPoint x="400" y="590" as="targetPoint" />
            <Array as="points" />
          </mxGeometry>
        </mxCell>
        <mxCell id="kXp9v7Pjp5QSQNM3Q7uu-41" value="" style="endArrow=classic;html=1;rounded=0;fontColor=#FF0000;strokeColor=#330000;exitX=0;exitY=0.5;exitDx=0;exitDy=0;endFill=1;" parent="ioHsVVSMv6HEaXAQA3IK-1" edge="1">
          <mxGeometry width="50" height="50" relative="1" as="geometry">
            <mxPoint x="400" y="650" as="sourcePoint" />
            <mxPoint x="440" y="710" as="targetPoint" />
            <Array as="points">
              <mxPoint x="400" y="710" />
            </Array>
          </mxGeometry>
        </mxCell>
        <mxCell id="kXp9v7Pjp5QSQNM3Q7uu-45" value="" style="endArrow=classic;html=1;rounded=0;fontColor=#FF0000;strokeColor=#330000;endFill=1;entryX=0;entryY=0.5;entryDx=0;entryDy=0;" parent="ioHsVVSMv6HEaXAQA3IK-1" source="kXp9v7Pjp5QSQNM3Q7uu-44" target="kXp9v7Pjp5QSQNM3Q7uu-32" edge="1">
          <mxGeometry width="50" height="50" relative="1" as="geometry">
            <mxPoint x="400" y="530" as="sourcePoint" />
            <mxPoint x="440" y="590" as="targetPoint" />
            <Array as="points">
              <mxPoint x="400" y="590" />
            </Array>
          </mxGeometry>
        </mxCell>
        <mxCell id="kXp9v7Pjp5QSQNM3Q7uu-44" value="" style="shape=waypoint;sketch=0;fillStyle=solid;size=6;pointerEvents=1;points=[];fillColor=none;resizable=0;rotatable=0;perimeter=centerPerimeter;snapToPoint=1;strokeColor=#330000;" parent="ioHsVVSMv6HEaXAQA3IK-1" vertex="1">
          <mxGeometry x="390" y="580" width="20" height="20" as="geometry" />
        </mxCell>
        <mxCell id="kXp9v7Pjp5QSQNM3Q7uu-47" value="" style="endArrow=classic;html=1;rounded=0;fontColor=#FF0000;strokeColor=#330000;endFill=1;" parent="ioHsVVSMv6HEaXAQA3IK-1" source="kXp9v7Pjp5QSQNM3Q7uu-46" edge="1">
          <mxGeometry width="50" height="50" relative="1" as="geometry">
            <mxPoint x="400" y="590" as="sourcePoint" />
            <mxPoint x="440" y="650" as="targetPoint" />
            <Array as="points">
              <mxPoint x="400" y="650" />
            </Array>
          </mxGeometry>
        </mxCell>
        <mxCell id="kXp9v7Pjp5QSQNM3Q7uu-46" value="" style="shape=waypoint;sketch=0;fillStyle=solid;size=6;pointerEvents=1;points=[];fillColor=none;resizable=0;rotatable=0;perimeter=centerPerimeter;snapToPoint=1;strokeColor=#330000;" parent="ioHsVVSMv6HEaXAQA3IK-1" vertex="1">
          <mxGeometry x="390" y="640" width="20" height="20" as="geometry" />
        </mxCell>
        <mxCell id="kXp9v7Pjp5QSQNM3Q7uu-49" value="&lt;div&gt;Разъём&lt;/div&gt;&lt;div&gt;Питания ДТ&lt;/div&gt;" style="rounded=0;whiteSpace=wrap;html=1;" parent="ioHsVVSMv6HEaXAQA3IK-1" vertex="1">
          <mxGeometry x="510" y="280" width="90" height="60" as="geometry" />
        </mxCell>
        <mxCell id="kXp9v7Pjp5QSQNM3Q7uu-50" value="&lt;div&gt;Разъём&lt;/div&gt;&lt;div&gt;USB&lt;/div&gt;" style="rounded=0;whiteSpace=wrap;html=1;" parent="ioHsVVSMv6HEaXAQA3IK-1" vertex="1">
          <mxGeometry x="80" y="280" width="80" height="60" as="geometry" />
        </mxCell>
        <mxCell id="kXp9v7Pjp5QSQNM3Q7uu-51" value="ПО_МК" style="rounded=1;whiteSpace=wrap;html=1;" parent="ioHsVVSMv6HEaXAQA3IK-1" vertex="1">
          <mxGeometry x="252.5" y="390" width="55" height="30" as="geometry" />
        </mxCell>
        <mxCell id="kXp9v7Pjp5QSQNM3Q7uu-52" value="" style="shape=curlyBracket;whiteSpace=wrap;html=1;rounded=1;labelPosition=left;verticalLabelPosition=middle;align=right;verticalAlign=middle;size=0.5;" parent="ioHsVVSMv6HEaXAQA3IK-1" vertex="1">
          <mxGeometry x="420" y="430" width="20" height="50" as="geometry" />
        </mxCell>
        <mxCell id="kXp9v7Pjp5QSQNM3Q7uu-53" value="" style="endArrow=classic;html=1;rounded=0;strokeColor=#FF0000;dashed=1;" parent="ioHsVVSMv6HEaXAQA3IK-1" edge="1">
          <mxGeometry width="50" height="50" relative="1" as="geometry">
            <mxPoint x="420" y="454.86" as="sourcePoint" />
            <mxPoint x="340" y="455" as="targetPoint" />
          </mxGeometry>
        </mxCell>
        <mxCell id="kXp9v7Pjp5QSQNM3Q7uu-54" value="" style="endArrow=classic;html=1;rounded=0;entryX=0;entryY=0.5;entryDx=0;entryDy=0;" parent="ioHsVVSMv6HEaXAQA3IK-1" target="ioHsVVSMv6HEaXAQA3IK-7" edge="1">
          <mxGeometry width="50" height="50" relative="1" as="geometry">
            <mxPoint x="340" y="405" as="sourcePoint" />
            <mxPoint x="460" y="310" as="targetPoint" />
          </mxGeometry>
        </mxCell>
        <mxCell id="kXp9v7Pjp5QSQNM3Q7uu-55" value="Управление&lt;div&gt;(4GPIO)&lt;/div&gt;" style="edgeLabel;html=1;align=center;verticalAlign=middle;resizable=0;points=[];" parent="kXp9v7Pjp5QSQNM3Q7uu-54" vertex="1" connectable="0">
          <mxGeometry x="-0.2885" relative="1" as="geometry">
            <mxPoint x="14" y="-15" as="offset" />
          </mxGeometry>
        </mxCell>
        <mxCell id="kXp9v7Pjp5QSQNM3Q7uu-56" value="" style="endArrow=classic;startArrow=classic;html=1;rounded=0;entryX=0;entryY=0.25;entryDx=0;entryDy=0;" parent="ioHsVVSMv6HEaXAQA3IK-1" target="ioHsVVSMv6HEaXAQA3IK-6" edge="1">
          <mxGeometry width="50" height="50" relative="1" as="geometry">
            <mxPoint x="160" y="435" as="sourcePoint" />
            <mxPoint x="220" y="310" as="targetPoint" />
          </mxGeometry>
        </mxCell>
        <mxCell id="kXp9v7Pjp5QSQNM3Q7uu-58" value="SPI" style="edgeLabel;html=1;align=center;verticalAlign=middle;resizable=0;points=[];" parent="kXp9v7Pjp5QSQNM3Q7uu-56" vertex="1" connectable="0">
          <mxGeometry x="-0.0933" y="-2" relative="1" as="geometry">
            <mxPoint y="-17" as="offset" />
          </mxGeometry>
        </mxCell>
        <mxCell id="kXp9v7Pjp5QSQNM3Q7uu-57" value="" style="endArrow=classic;startArrow=classic;html=1;rounded=0;entryX=0.5;entryY=1;entryDx=0;entryDy=0;exitX=0.5;exitY=0;exitDx=0;exitDy=0;" parent="ioHsVVSMv6HEaXAQA3IK-1" source="ioHsVVSMv6HEaXAQA3IK-3" target="kXp9v7Pjp5QSQNM3Q7uu-50" edge="1">
          <mxGeometry width="50" height="50" relative="1" as="geometry">
            <mxPoint x="120" y="370" as="sourcePoint" />
            <mxPoint x="180" y="370" as="targetPoint" />
          </mxGeometry>
        </mxCell>
        <mxCell id="kXp9v7Pjp5QSQNM3Q7uu-59" value="USB" style="edgeLabel;html=1;align=center;verticalAlign=middle;resizable=0;points=[];" parent="kXp9v7Pjp5QSQNM3Q7uu-57" vertex="1" connectable="0">
          <mxGeometry x="0.0333" y="-2" relative="1" as="geometry">
            <mxPoint x="18" as="offset" />
          </mxGeometry>
        </mxCell>
        <mxCell id="kXp9v7Pjp5QSQNM3Q7uu-60" value="Вторичное питание" style="rounded=0;whiteSpace=wrap;html=1;" parent="ioHsVVSMv6HEaXAQA3IK-1" vertex="1">
          <mxGeometry x="80" y="600" width="80" height="60" as="geometry" />
        </mxCell>
        <mxCell id="kXp9v7Pjp5QSQNM3Q7uu-61" value="" style="endArrow=none;startArrow=classic;html=1;rounded=0;entryX=0.25;entryY=1;entryDx=0;entryDy=0;exitX=0.5;exitY=0;exitDx=0;exitDy=0;endFill=0;" parent="ioHsVVSMv6HEaXAQA3IK-1" source="kXp9v7Pjp5QSQNM3Q7uu-60" target="kXp9v7Pjp5QSQNM3Q7uu-50" edge="1">
          <mxGeometry width="50" height="50" relative="1" as="geometry">
            <mxPoint x="30" y="460" as="sourcePoint" />
            <mxPoint x="30" y="400" as="targetPoint" />
            <Array as="points">
              <mxPoint x="120" y="550" />
              <mxPoint x="40" y="550" />
              <mxPoint x="40" y="370" />
              <mxPoint x="100" y="370" />
            </Array>
          </mxGeometry>
        </mxCell>
        <mxCell id="kXp9v7Pjp5QSQNM3Q7uu-62" value="+5В" style="edgeLabel;html=1;align=center;verticalAlign=middle;resizable=0;points=[];" parent="kXp9v7Pjp5QSQNM3Q7uu-61" vertex="1" connectable="0">
          <mxGeometry x="0.0333" y="-2" relative="1" as="geometry">
            <mxPoint x="18" as="offset" />
          </mxGeometry>
        </mxCell>
        <mxCell id="kXp9v7Pjp5QSQNM3Q7uu-65" value="" style="endArrow=classic;html=1;rounded=0;exitX=1;exitY=0.5;exitDx=0;exitDy=0;entryX=0.5;entryY=1;entryDx=0;entryDy=0;strokeColor=#FFB366;" parent="ioHsVVSMv6HEaXAQA3IK-1" source="kXp9v7Pjp5QSQNM3Q7uu-60" target="ioHsVVSMv6HEaXAQA3IK-6" edge="1">
          <mxGeometry width="50" height="50" relative="1" as="geometry">
            <mxPoint x="330" y="680" as="sourcePoint" />
            <mxPoint x="380" y="630" as="targetPoint" />
            <Array as="points">
              <mxPoint x="280" y="630" />
            </Array>
          </mxGeometry>
        </mxCell>
        <mxCell id="kXp9v7Pjp5QSQNM3Q7uu-66" value="" style="endArrow=classic;html=1;rounded=0;exitDx=0;exitDy=0;entryX=0;entryY=0.75;entryDx=0;entryDy=0;strokeColor=#FFB366;" parent="ioHsVVSMv6HEaXAQA3IK-1" source="kXp9v7Pjp5QSQNM3Q7uu-92" target="ioHsVVSMv6HEaXAQA3IK-8" edge="1">
          <mxGeometry width="50" height="50" relative="1" as="geometry">
            <mxPoint x="150" y="730" as="sourcePoint" />
            <mxPoint x="270" y="670" as="targetPoint" />
            <Array as="points">
              <mxPoint x="370" y="540" />
            </Array>
          </mxGeometry>
        </mxCell>
        <mxCell id="kXp9v7Pjp5QSQNM3Q7uu-67" value="" style="endArrow=classic;html=1;rounded=0;entryX=0;entryY=0.75;entryDx=0;entryDy=0;strokeColor=#FFB366;" parent="ioHsVVSMv6HEaXAQA3IK-1" target="kXp9v7Pjp5QSQNM3Q7uu-32" edge="1">
          <mxGeometry width="50" height="50" relative="1" as="geometry">
            <mxPoint x="370" y="600" as="sourcePoint" />
            <mxPoint x="330" y="600" as="targetPoint" />
          </mxGeometry>
        </mxCell>
        <mxCell id="kXp9v7Pjp5QSQNM3Q7uu-68" value="" style="endArrow=classic;html=1;rounded=0;entryX=0;entryY=0.75;entryDx=0;entryDy=0;strokeColor=#FFB366;" parent="ioHsVVSMv6HEaXAQA3IK-1" source="kXp9v7Pjp5QSQNM3Q7uu-94" target="kXp9v7Pjp5QSQNM3Q7uu-33" edge="1">
          <mxGeometry width="50" height="50" relative="1" as="geometry">
            <mxPoint x="370" y="660" as="sourcePoint" />
            <mxPoint x="440" y="665" as="targetPoint" />
          </mxGeometry>
        </mxCell>
        <mxCell id="kXp9v7Pjp5QSQNM3Q7uu-69" value="" style="endArrow=classic;html=1;rounded=0;entryX=0;entryY=0.75;entryDx=0;entryDy=0;strokeColor=#FFB366;" parent="ioHsVVSMv6HEaXAQA3IK-1" edge="1">
          <mxGeometry width="50" height="50" relative="1" as="geometry">
            <mxPoint x="370" y="720" as="sourcePoint" />
            <mxPoint x="440" y="720" as="targetPoint" />
          </mxGeometry>
        </mxCell>
        <mxCell id="kXp9v7Pjp5QSQNM3Q7uu-70" value="" style="endArrow=classic;startArrow=classic;html=1;rounded=0;entryX=0.5;entryY=0;entryDx=0;entryDy=0;exitX=0.5;exitY=1;exitDx=0;exitDy=0;" parent="ioHsVVSMv6HEaXAQA3IK-1" source="ioHsVVSMv6HEaXAQA3IK-68" edge="1">
          <mxGeometry width="50" height="50" relative="1" as="geometry">
            <mxPoint x="220" y="370" as="sourcePoint" />
            <mxPoint x="240" y="390" as="targetPoint" />
          </mxGeometry>
        </mxCell>
        <mxCell id="kXp9v7Pjp5QSQNM3Q7uu-72" value="&lt;div&gt;Разъём&lt;/div&gt;отладки ПО" style="rounded=0;whiteSpace=wrap;html=1;" parent="ioHsVVSMv6HEaXAQA3IK-1" vertex="1">
          <mxGeometry x="280" y="280" width="80" height="60" as="geometry" />
        </mxCell>
        <mxCell id="kXp9v7Pjp5QSQNM3Q7uu-73" value="" style="endArrow=classic;startArrow=classic;html=1;rounded=0;entryX=0.5;entryY=0;entryDx=0;entryDy=0;exitX=0.5;exitY=1;exitDx=0;exitDy=0;" parent="ioHsVVSMv6HEaXAQA3IK-1" source="kXp9v7Pjp5QSQNM3Q7uu-72" edge="1">
          <mxGeometry width="50" height="50" relative="1" as="geometry">
            <mxPoint x="300" y="370" as="sourcePoint" />
            <mxPoint x="320" y="390" as="targetPoint" />
          </mxGeometry>
        </mxCell>
        <mxCell id="kXp9v7Pjp5QSQNM3Q7uu-78" value="SPI&lt;div&gt;4xCS&lt;/div&gt;" style="rounded=0;whiteSpace=wrap;html=1;" parent="ioHsVVSMv6HEaXAQA3IK-1" vertex="1">
          <mxGeometry x="300" y="515" width="40" height="30" as="geometry" />
        </mxCell>
        <mxCell id="kXp9v7Pjp5QSQNM3Q7uu-79" value="SPI" style="rounded=0;whiteSpace=wrap;html=1;" parent="ioHsVVSMv6HEaXAQA3IK-1" vertex="1">
          <mxGeometry x="220" y="425" width="40" height="20" as="geometry" />
        </mxCell>
        <mxCell id="kXp9v7Pjp5QSQNM3Q7uu-80" value="GPIO&lt;div&gt;x4&lt;/div&gt;" style="rounded=0;whiteSpace=wrap;html=1;" parent="ioHsVVSMv6HEaXAQA3IK-1" vertex="1">
          <mxGeometry x="310" y="390" width="30" height="30" as="geometry" />
        </mxCell>
        <mxCell id="kXp9v7Pjp5QSQNM3Q7uu-81" value="&lt;table class=&quot;NormalTable&quot;&gt;&lt;tbody&gt;&lt;tr&gt;&lt;td style=&quot;border-left-style:none;border-bottom-style:none;border-right-style:none;border-top-style:none;&quot; width=&quot;200&quot;&gt;&lt;span class=&quot;fontstyle0&quot;&gt;Источник постоянного тока&lt;/span&gt;&lt;/td&gt;&lt;/tr&gt;&lt;/tbody&gt;&lt;/table&gt;для питания ДТ" style="rounded=0;whiteSpace=wrap;html=1;" parent="ioHsVVSMv6HEaXAQA3IK-1" vertex="1">
          <mxGeometry x="495" y="140" width="120" height="80" as="geometry" />
        </mxCell>
        <mxCell id="kXp9v7Pjp5QSQNM3Q7uu-83" value="USB1" style="rounded=0;whiteSpace=wrap;html=1;" parent="ioHsVVSMv6HEaXAQA3IK-1" vertex="1">
          <mxGeometry x="220" y="130" width="45" height="20" as="geometry" />
        </mxCell>
        <mxCell id="kXp9v7Pjp5QSQNM3Q7uu-85" value="" style="endArrow=classic;startArrow=classic;html=1;rounded=0;exitX=0.5;exitY=0;exitDx=0;exitDy=0;entryX=0;entryY=0.5;entryDx=0;entryDy=0;" parent="ioHsVVSMv6HEaXAQA3IK-1" source="kXp9v7Pjp5QSQNM3Q7uu-50" target="kXp9v7Pjp5QSQNM3Q7uu-83" edge="1">
          <mxGeometry width="50" height="50" relative="1" as="geometry">
            <mxPoint x="120" y="240" as="sourcePoint" />
            <mxPoint x="170" y="190" as="targetPoint" />
            <Array as="points">
              <mxPoint x="120" y="140" />
            </Array>
          </mxGeometry>
        </mxCell>
        <mxCell id="kXp9v7Pjp5QSQNM3Q7uu-86" value="&lt;table class=&quot;NormalTable&quot;&gt;&lt;tbody&gt;&lt;tr&gt;&lt;td style=&quot;border-left-style:none;border-bottom-style:none;border-right-style:none;border-top-style:none;&quot; width=&quot;200&quot;&gt;&lt;span class=&quot;fontstyle0&quot;&gt;Источник постоянного измеряемого тока&lt;/span&gt;&lt;/td&gt;&lt;/tr&gt;&lt;/tbody&gt;&lt;/table&gt;" style="rounded=0;whiteSpace=wrap;html=1;" parent="ioHsVVSMv6HEaXAQA3IK-1" vertex="1">
          <mxGeometry x="495" y="40" width="120" height="80" as="geometry" />
        </mxCell>
        <mxCell id="kXp9v7Pjp5QSQNM3Q7uu-87" value="USB2" style="rounded=0;whiteSpace=wrap;html=1;" parent="ioHsVVSMv6HEaXAQA3IK-1" vertex="1">
          <mxGeometry x="295" y="110" width="45" height="20" as="geometry" />
        </mxCell>
        <mxCell id="kXp9v7Pjp5QSQNM3Q7uu-88" value="USB3" style="rounded=0;whiteSpace=wrap;html=1;" parent="ioHsVVSMv6HEaXAQA3IK-1" vertex="1">
          <mxGeometry x="295" y="130" width="45" height="20" as="geometry" />
        </mxCell>
        <mxCell id="kXp9v7Pjp5QSQNM3Q7uu-89" value="" style="endArrow=classic;startArrow=classic;html=1;rounded=0;exitX=1;exitY=0.5;exitDx=0;exitDy=0;entryX=0;entryY=0.5;entryDx=0;entryDy=0;" parent="ioHsVVSMv6HEaXAQA3IK-1" source="kXp9v7Pjp5QSQNM3Q7uu-87" target="kXp9v7Pjp5QSQNM3Q7uu-86" edge="1">
          <mxGeometry width="50" height="50" relative="1" as="geometry">
            <mxPoint x="390" y="50" as="sourcePoint" />
            <mxPoint x="440" as="targetPoint" />
            <Array as="points">
              <mxPoint x="380" y="120" />
              <mxPoint x="380" y="80" />
            </Array>
          </mxGeometry>
        </mxCell>
        <mxCell id="kXp9v7Pjp5QSQNM3Q7uu-90" value="" style="endArrow=classic;startArrow=classic;html=1;rounded=0;exitX=1;exitY=0.5;exitDx=0;exitDy=0;entryX=0;entryY=0.5;entryDx=0;entryDy=0;" parent="ioHsVVSMv6HEaXAQA3IK-1" source="kXp9v7Pjp5QSQNM3Q7uu-88" target="kXp9v7Pjp5QSQNM3Q7uu-81" edge="1">
          <mxGeometry width="50" height="50" relative="1" as="geometry">
            <mxPoint x="370" y="240" as="sourcePoint" />
            <mxPoint x="420" y="190" as="targetPoint" />
            <Array as="points">
              <mxPoint x="380" y="140" />
              <mxPoint x="380" y="180" />
            </Array>
          </mxGeometry>
        </mxCell>
        <mxCell id="kXp9v7Pjp5QSQNM3Q7uu-91" value="" style="endArrow=classic;html=1;rounded=0;entryX=0.5;entryY=0;entryDx=0;entryDy=0;strokeColor=#FF0000;strokeWidth=3;exitX=0.5;exitY=1;exitDx=0;exitDy=0;" parent="ioHsVVSMv6HEaXAQA3IK-1" source="kXp9v7Pjp5QSQNM3Q7uu-81" edge="1">
          <mxGeometry width="50" height="50" relative="1" as="geometry">
            <mxPoint x="554.66" y="240" as="sourcePoint" />
            <mxPoint x="554.66" y="280" as="targetPoint" />
          </mxGeometry>
        </mxCell>
        <mxCell id="kXp9v7Pjp5QSQNM3Q7uu-93" value="" style="endArrow=none;html=1;rounded=0;exitX=0.5;exitY=1;exitDx=0;exitDy=0;entryDx=0;entryDy=0;strokeColor=#FFB366;endFill=0;" parent="ioHsVVSMv6HEaXAQA3IK-1" source="kXp9v7Pjp5QSQNM3Q7uu-60" target="kXp9v7Pjp5QSQNM3Q7uu-92" edge="1">
          <mxGeometry width="50" height="50" relative="1" as="geometry">
            <mxPoint x="120" y="660" as="sourcePoint" />
            <mxPoint x="440" y="540" as="targetPoint" />
            <Array as="points">
              <mxPoint x="120" y="720" />
              <mxPoint x="370" y="720" />
            </Array>
          </mxGeometry>
        </mxCell>
        <mxCell id="kXp9v7Pjp5QSQNM3Q7uu-92" value="" style="shape=waypoint;sketch=0;fillStyle=solid;size=6;pointerEvents=1;points=[];fillColor=none;resizable=0;rotatable=0;perimeter=centerPerimeter;snapToPoint=1;strokeColor=#FFB366;" parent="ioHsVVSMv6HEaXAQA3IK-1" vertex="1">
          <mxGeometry x="360" y="590" width="20" height="20" as="geometry" />
        </mxCell>
        <mxCell id="kXp9v7Pjp5QSQNM3Q7uu-95" value="" style="endArrow=classic;html=1;rounded=0;entryDx=0;entryDy=0;strokeColor=#FFB366;" parent="ioHsVVSMv6HEaXAQA3IK-1" target="kXp9v7Pjp5QSQNM3Q7uu-94" edge="1">
          <mxGeometry width="50" height="50" relative="1" as="geometry">
            <mxPoint x="370" y="660" as="sourcePoint" />
            <mxPoint x="440" y="660" as="targetPoint" />
          </mxGeometry>
        </mxCell>
        <mxCell id="kXp9v7Pjp5QSQNM3Q7uu-94" value="" style="shape=waypoint;sketch=0;fillStyle=solid;size=6;pointerEvents=1;points=[];fillColor=none;resizable=0;rotatable=0;perimeter=centerPerimeter;snapToPoint=1;strokeColor=#FFB366;" parent="ioHsVVSMv6HEaXAQA3IK-1" vertex="1">
          <mxGeometry x="360" y="650" width="20" height="20" as="geometry" />
        </mxCell>
      </root>
    </mxGraphModel>
  </diagram>
  <diagram name="Копия Версия 1" id="rnpoSE3f4S21i1fX0aEy">
    <mxGraphModel dx="1194" dy="814" grid="0" gridSize="10" guides="1" tooltips="1" connect="1" arrows="1" fold="1" page="0" pageScale="1" pageWidth="827" pageHeight="1169" math="0" shadow="0">
      <root>
        <mxCell id="5vPPDH_FdWS2vNOrJjIZ-0" />
        <mxCell id="5vPPDH_FdWS2vNOrJjIZ-1" parent="5vPPDH_FdWS2vNOrJjIZ-0" />
        <mxCell id="5vPPDH_FdWS2vNOrJjIZ-2" value="" style="rounded=0;whiteSpace=wrap;html=1;dashed=1;fillColor=none;" parent="5vPPDH_FdWS2vNOrJjIZ-1" vertex="1">
          <mxGeometry x="60" y="320" width="730" height="330" as="geometry" />
        </mxCell>
        <mxCell id="5vPPDH_FdWS2vNOrJjIZ-3" value="Драйвер&amp;nbsp;&lt;div&gt;USB/SPI&lt;/div&gt;" style="rounded=0;whiteSpace=wrap;html=1;fillColor=#fff2cc;strokeColor=#d6b656;" parent="5vPPDH_FdWS2vNOrJjIZ-1" vertex="1">
          <mxGeometry x="120" y="400" width="80" height="40" as="geometry" />
        </mxCell>
        <mxCell id="5vPPDH_FdWS2vNOrJjIZ-4" value="ПК" style="rounded=0;whiteSpace=wrap;html=1;" parent="5vPPDH_FdWS2vNOrJjIZ-1" vertex="1">
          <mxGeometry x="120" y="150" width="310" height="130" as="geometry" />
        </mxCell>
        <mxCell id="5vPPDH_FdWS2vNOrJjIZ-5" value="ПО_ПК" style="rounded=1;whiteSpace=wrap;html=1;" parent="5vPPDH_FdWS2vNOrJjIZ-1" vertex="1">
          <mxGeometry x="245" y="170" width="60" height="30" as="geometry" />
        </mxCell>
        <mxCell id="5vPPDH_FdWS2vNOrJjIZ-6" value="МК&lt;div&gt;(STM)&lt;/div&gt;" style="rounded=0;whiteSpace=wrap;html=1;fillColor=#fff2cc;strokeColor=#d6b656;" parent="5vPPDH_FdWS2vNOrJjIZ-1" vertex="1">
          <mxGeometry x="240" y="400" width="120" height="220" as="geometry" />
        </mxCell>
        <mxCell id="5vPPDH_FdWS2vNOrJjIZ-7" value="Ключи&amp;nbsp;&lt;span style=&quot;background-color: initial;&quot;&gt;питания группы&amp;nbsp;&lt;/span&gt;&lt;span style=&quot;background-color: initial;&quot;&gt;№1&lt;/span&gt;" style="rounded=0;whiteSpace=wrap;html=1;" parent="5vPPDH_FdWS2vNOrJjIZ-1" vertex="1">
          <mxGeometry x="560" y="400" width="90" height="40" as="geometry" />
        </mxCell>
        <mxCell id="5vPPDH_FdWS2vNOrJjIZ-8" value="MUX №1&lt;div&gt;8 каналов&lt;/div&gt;" style="rounded=0;whiteSpace=wrap;html=1;fillColor=#fff2cc;strokeColor=#d6b656;" parent="5vPPDH_FdWS2vNOrJjIZ-1" vertex="1">
          <mxGeometry x="430" y="400" width="80" height="40" as="geometry" />
        </mxCell>
        <mxCell id="5vPPDH_FdWS2vNOrJjIZ-9" value="ДТ-500 №1...8" style="rounded=0;whiteSpace=wrap;html=1;" parent="5vPPDH_FdWS2vNOrJjIZ-1" vertex="1">
          <mxGeometry x="850" y="400" width="80" height="40" as="geometry" />
        </mxCell>
        <mxCell id="5vPPDH_FdWS2vNOrJjIZ-11" value="" style="endArrow=classic;html=1;rounded=0;fontColor=#FF0000;strokeColor=#330000;exitDx=0;exitDy=0;entryX=0.5;entryY=1;entryDx=0;entryDy=0;" parent="5vPPDH_FdWS2vNOrJjIZ-1" source="30j-dPES7vWr_bBKj393-120" target="30j-dPES7vWr_bBKj393-1" edge="1">
          <mxGeometry width="50" height="50" relative="1" as="geometry">
            <mxPoint x="700" y="460" as="sourcePoint" />
            <mxPoint x="690" y="320" as="targetPoint" />
            <Array as="points">
              <mxPoint x="690" y="380" />
            </Array>
          </mxGeometry>
        </mxCell>
        <mxCell id="5vPPDH_FdWS2vNOrJjIZ-12" value="" style="endArrow=classic;html=1;rounded=0;fontColor=#FF0000;strokeColor=#FF0000;" parent="5vPPDH_FdWS2vNOrJjIZ-1" edge="1">
          <mxGeometry width="50" height="50" relative="1" as="geometry">
            <mxPoint x="230" y="1005" as="sourcePoint" />
            <mxPoint x="270" y="1005" as="targetPoint" />
          </mxGeometry>
        </mxCell>
        <mxCell id="5vPPDH_FdWS2vNOrJjIZ-13" value="" style="endArrow=classic;html=1;rounded=0;fontColor=#FF0000;strokeColor=#FF0000;" parent="5vPPDH_FdWS2vNOrJjIZ-1" edge="1">
          <mxGeometry width="50" height="50" relative="1" as="geometry">
            <mxPoint x="230" y="1045" as="sourcePoint" />
            <mxPoint x="270" y="1045" as="targetPoint" />
          </mxGeometry>
        </mxCell>
        <mxCell id="5vPPDH_FdWS2vNOrJjIZ-14" value="Питание&amp;nbsp;&lt;div&gt;ДП&lt;/div&gt;" style="text;html=1;align=center;verticalAlign=middle;whiteSpace=wrap;rounded=0;" parent="5vPPDH_FdWS2vNOrJjIZ-1" vertex="1">
          <mxGeometry x="270" y="990" width="60" height="30" as="geometry" />
        </mxCell>
        <mxCell id="5vPPDH_FdWS2vNOrJjIZ-15" value="Инфосигналы" style="text;html=1;align=center;verticalAlign=middle;whiteSpace=wrap;rounded=0;" parent="5vPPDH_FdWS2vNOrJjIZ-1" vertex="1">
          <mxGeometry x="270" y="1050" width="90" height="30" as="geometry" />
        </mxCell>
        <mxCell id="5vPPDH_FdWS2vNOrJjIZ-23" value="" style="endArrow=classic;html=1;rounded=0;strokeColor=#FF0000;dashed=1;" parent="5vPPDH_FdWS2vNOrJjIZ-1" edge="1">
          <mxGeometry width="50" height="50" relative="1" as="geometry">
            <mxPoint x="150" y="1004.76" as="sourcePoint" />
            <mxPoint x="110" y="1005" as="targetPoint" />
          </mxGeometry>
        </mxCell>
        <mxCell id="5vPPDH_FdWS2vNOrJjIZ-24" value="ВСК/ОС&lt;div&gt;Питания&lt;/div&gt;" style="text;html=1;align=center;verticalAlign=middle;whiteSpace=wrap;rounded=0;" parent="5vPPDH_FdWS2vNOrJjIZ-1" vertex="1">
          <mxGeometry x="150" y="990" width="60" height="30" as="geometry" />
        </mxCell>
        <mxCell id="5vPPDH_FdWS2vNOrJjIZ-33" value="&lt;div&gt;Разъём&lt;/div&gt;загрузки ПО" style="rounded=0;whiteSpace=wrap;html=1;fillColor=#fff2cc;strokeColor=#d6b656;" parent="5vPPDH_FdWS2vNOrJjIZ-1" vertex="1">
          <mxGeometry x="220" y="320" width="80" height="40" as="geometry" />
        </mxCell>
        <mxCell id="5vPPDH_FdWS2vNOrJjIZ-36" value="ДТ-500 №9...16" style="rounded=0;whiteSpace=wrap;html=1;" parent="5vPPDH_FdWS2vNOrJjIZ-1" vertex="1">
          <mxGeometry x="850" y="460" width="80" height="40" as="geometry" />
        </mxCell>
        <mxCell id="5vPPDH_FdWS2vNOrJjIZ-41" value="ДТ-500 №17...24" style="rounded=0;whiteSpace=wrap;html=1;" parent="5vPPDH_FdWS2vNOrJjIZ-1" vertex="1">
          <mxGeometry x="850" y="520" width="80" height="40" as="geometry" />
        </mxCell>
        <mxCell id="5vPPDH_FdWS2vNOrJjIZ-46" value="ДТ-500 №25...32" style="rounded=0;whiteSpace=wrap;html=1;" parent="5vPPDH_FdWS2vNOrJjIZ-1" vertex="1">
          <mxGeometry x="850" y="580" width="80" height="40" as="geometry" />
        </mxCell>
        <mxCell id="5vPPDH_FdWS2vNOrJjIZ-51" value="MUX&amp;nbsp;№2&lt;div&gt;8 каналов&lt;/div&gt;" style="rounded=0;whiteSpace=wrap;html=1;fillColor=#fff2cc;strokeColor=#d6b656;" parent="5vPPDH_FdWS2vNOrJjIZ-1" vertex="1">
          <mxGeometry x="430" y="460" width="80" height="40" as="geometry" />
        </mxCell>
        <mxCell id="5vPPDH_FdWS2vNOrJjIZ-52" value="MUX&amp;nbsp;№3&lt;div&gt;8 каналов&lt;/div&gt;" style="rounded=0;whiteSpace=wrap;html=1;fillColor=#fff2cc;strokeColor=#d6b656;" parent="5vPPDH_FdWS2vNOrJjIZ-1" vertex="1">
          <mxGeometry x="430" y="520" width="80" height="40" as="geometry" />
        </mxCell>
        <mxCell id="5vPPDH_FdWS2vNOrJjIZ-53" value="MUX&amp;nbsp;№4&lt;div&gt;8 каналов&lt;/div&gt;" style="rounded=0;whiteSpace=wrap;html=1;fillColor=#fff2cc;strokeColor=#d6b656;" parent="5vPPDH_FdWS2vNOrJjIZ-1" vertex="1">
          <mxGeometry x="430" y="580" width="80" height="40" as="geometry" />
        </mxCell>
        <mxCell id="5vPPDH_FdWS2vNOrJjIZ-65" value="&lt;div&gt;Разъём&lt;/div&gt;&lt;div&gt;Питания ДТ&lt;/div&gt;" style="rounded=0;whiteSpace=wrap;html=1;fillColor=#fff2cc;strokeColor=#d6b656;" parent="5vPPDH_FdWS2vNOrJjIZ-1" vertex="1">
          <mxGeometry x="500" y="320" width="90" height="40" as="geometry" />
        </mxCell>
        <mxCell id="5vPPDH_FdWS2vNOrJjIZ-66" value="&lt;div&gt;Разъём&lt;/div&gt;&lt;div&gt;USB&lt;/div&gt;" style="rounded=0;whiteSpace=wrap;html=1;fillColor=#fff2cc;strokeColor=#d6b656;" parent="5vPPDH_FdWS2vNOrJjIZ-1" vertex="1">
          <mxGeometry x="120" y="320" width="80" height="40" as="geometry" />
        </mxCell>
        <mxCell id="5vPPDH_FdWS2vNOrJjIZ-67" value="ПО_МК" style="rounded=1;whiteSpace=wrap;html=1;" parent="5vPPDH_FdWS2vNOrJjIZ-1" vertex="1">
          <mxGeometry x="270" y="554.5" width="60" height="30" as="geometry" />
        </mxCell>
        <mxCell id="5vPPDH_FdWS2vNOrJjIZ-72" value="" style="endArrow=classic;startArrow=classic;html=1;rounded=0;entryX=0;entryY=0.5;entryDx=0;entryDy=0;exitX=1;exitY=0.5;exitDx=0;exitDy=0;" parent="5vPPDH_FdWS2vNOrJjIZ-1" source="5vPPDH_FdWS2vNOrJjIZ-3" target="5vPPDH_FdWS2vNOrJjIZ-88" edge="1">
          <mxGeometry width="50" height="50" relative="1" as="geometry">
            <mxPoint x="-330" y="210" as="sourcePoint" />
            <mxPoint x="-330" y="470" as="targetPoint" />
            <Array as="points" />
          </mxGeometry>
        </mxCell>
        <mxCell id="5vPPDH_FdWS2vNOrJjIZ-73" value="SPI" style="edgeLabel;html=1;align=center;verticalAlign=middle;resizable=0;points=[];" parent="5vPPDH_FdWS2vNOrJjIZ-72" vertex="1" connectable="0">
          <mxGeometry relative="1" as="geometry">
            <mxPoint y="-10" as="offset" />
          </mxGeometry>
        </mxCell>
        <mxCell id="5vPPDH_FdWS2vNOrJjIZ-74" value="" style="endArrow=classic;startArrow=classic;html=1;rounded=0;entryX=0.5;entryY=0;entryDx=0;entryDy=0;exitX=0.5;exitY=1;exitDx=0;exitDy=0;" parent="5vPPDH_FdWS2vNOrJjIZ-1" source="5vPPDH_FdWS2vNOrJjIZ-91" target="5vPPDH_FdWS2vNOrJjIZ-66" edge="1">
          <mxGeometry width="50" height="50" relative="1" as="geometry">
            <mxPoint x="-70" y="230" as="sourcePoint" />
            <mxPoint x="60" y="240" as="targetPoint" />
          </mxGeometry>
        </mxCell>
        <mxCell id="5vPPDH_FdWS2vNOrJjIZ-75" value="USB" style="edgeLabel;html=1;align=center;verticalAlign=middle;resizable=0;points=[];" parent="5vPPDH_FdWS2vNOrJjIZ-74" vertex="1" connectable="0">
          <mxGeometry relative="1" as="geometry">
            <mxPoint x="18" as="offset" />
          </mxGeometry>
        </mxCell>
        <mxCell id="5vPPDH_FdWS2vNOrJjIZ-76" value="Вторичное питание" style="rounded=0;whiteSpace=wrap;html=1;" parent="5vPPDH_FdWS2vNOrJjIZ-1" vertex="1">
          <mxGeometry x="120" y="540" width="80" height="50" as="geometry" />
        </mxCell>
        <mxCell id="5vPPDH_FdWS2vNOrJjIZ-77" value="" style="endArrow=none;startArrow=classic;html=1;rounded=0;exitX=0;exitY=0.5;exitDx=0;exitDy=0;endFill=0;entryX=0.25;entryY=1;entryDx=0;entryDy=0;" parent="5vPPDH_FdWS2vNOrJjIZ-1" source="5vPPDH_FdWS2vNOrJjIZ-76" target="5vPPDH_FdWS2vNOrJjIZ-66" edge="1">
          <mxGeometry width="50" height="50" relative="1" as="geometry">
            <mxPoint x="30" y="460" as="sourcePoint" />
            <mxPoint x="-80" y="320" as="targetPoint" />
            <Array as="points">
              <mxPoint x="80" y="565" />
              <mxPoint x="80" y="390" />
              <mxPoint x="140" y="390" />
            </Array>
          </mxGeometry>
        </mxCell>
        <mxCell id="5vPPDH_FdWS2vNOrJjIZ-78" value="+5В" style="edgeLabel;html=1;align=center;verticalAlign=middle;resizable=0;points=[];" parent="5vPPDH_FdWS2vNOrJjIZ-77" vertex="1" connectable="0">
          <mxGeometry relative="1" as="geometry">
            <mxPoint x="18" as="offset" />
          </mxGeometry>
        </mxCell>
        <mxCell id="5vPPDH_FdWS2vNOrJjIZ-79" value="" style="endArrow=classic;html=1;rounded=0;strokeColor=#FFB366;entryX=0;entryY=0.75;entryDx=0;entryDy=0;exitX=1;exitY=0.5;exitDx=0;exitDy=0;" parent="5vPPDH_FdWS2vNOrJjIZ-1" source="5vPPDH_FdWS2vNOrJjIZ-76" target="5vPPDH_FdWS2vNOrJjIZ-6" edge="1">
          <mxGeometry width="50" height="50" relative="1" as="geometry">
            <mxPoint x="-111.66666666666667" y="640" as="sourcePoint" />
            <mxPoint x="-10" y="430" as="targetPoint" />
            <Array as="points" />
          </mxGeometry>
        </mxCell>
        <mxCell id="5vPPDH_FdWS2vNOrJjIZ-80" value="" style="endArrow=classic;html=1;rounded=0;exitDx=0;exitDy=0;strokeColor=#FFB366;" parent="5vPPDH_FdWS2vNOrJjIZ-1" source="5vPPDH_FdWS2vNOrJjIZ-100" edge="1">
          <mxGeometry width="50" height="50" relative="1" as="geometry">
            <mxPoint x="400" y="490" as="sourcePoint" />
            <mxPoint x="430" y="430" as="targetPoint" />
            <Array as="points">
              <mxPoint x="400" y="430" />
            </Array>
          </mxGeometry>
        </mxCell>
        <mxCell id="5vPPDH_FdWS2vNOrJjIZ-82" value="" style="endArrow=classic;html=1;rounded=0;strokeColor=#FFB366;" parent="5vPPDH_FdWS2vNOrJjIZ-1" source="5vPPDH_FdWS2vNOrJjIZ-102" edge="1">
          <mxGeometry width="50" height="50" relative="1" as="geometry">
            <mxPoint x="400" y="550" as="sourcePoint" />
            <mxPoint x="430" y="550" as="targetPoint" />
          </mxGeometry>
        </mxCell>
        <mxCell id="5vPPDH_FdWS2vNOrJjIZ-83" value="" style="endArrow=classic;html=1;rounded=0;entryX=0;entryY=0.75;entryDx=0;entryDy=0;strokeColor=#FFB366;" parent="5vPPDH_FdWS2vNOrJjIZ-1" target="5vPPDH_FdWS2vNOrJjIZ-53" edge="1">
          <mxGeometry width="50" height="50" relative="1" as="geometry">
            <mxPoint x="400" y="610" as="sourcePoint" />
            <mxPoint x="470" y="610" as="targetPoint" />
          </mxGeometry>
        </mxCell>
        <mxCell id="5vPPDH_FdWS2vNOrJjIZ-84" value="" style="endArrow=classic;startArrow=classic;html=1;rounded=0;entryX=0.5;entryY=0;entryDx=0;entryDy=0;exitX=0.5;exitY=1;exitDx=0;exitDy=0;" parent="5vPPDH_FdWS2vNOrJjIZ-1" source="5vPPDH_FdWS2vNOrJjIZ-33" edge="1">
          <mxGeometry width="50" height="50" relative="1" as="geometry">
            <mxPoint x="240" y="380" as="sourcePoint" />
            <mxPoint x="260" y="400" as="targetPoint" />
          </mxGeometry>
        </mxCell>
        <mxCell id="5vPPDH_FdWS2vNOrJjIZ-85" value="&lt;div&gt;Разъём&lt;/div&gt;отладки ПО" style="rounded=0;whiteSpace=wrap;html=1;fillColor=#fff2cc;strokeColor=#d6b656;" parent="5vPPDH_FdWS2vNOrJjIZ-1" vertex="1">
          <mxGeometry x="300" y="320" width="80" height="40" as="geometry" />
        </mxCell>
        <mxCell id="5vPPDH_FdWS2vNOrJjIZ-86" value="" style="endArrow=classic;startArrow=classic;html=1;rounded=0;entryX=0.5;entryY=0;entryDx=0;entryDy=0;exitX=0.5;exitY=1;exitDx=0;exitDy=0;" parent="5vPPDH_FdWS2vNOrJjIZ-1" source="5vPPDH_FdWS2vNOrJjIZ-85" edge="1">
          <mxGeometry width="50" height="50" relative="1" as="geometry">
            <mxPoint x="320" y="380" as="sourcePoint" />
            <mxPoint x="340" y="400" as="targetPoint" />
          </mxGeometry>
        </mxCell>
        <mxCell id="5vPPDH_FdWS2vNOrJjIZ-88" value="SPI" style="rounded=0;whiteSpace=wrap;html=1;" parent="5vPPDH_FdWS2vNOrJjIZ-1" vertex="1">
          <mxGeometry x="240" y="410" width="40" height="20" as="geometry" />
        </mxCell>
        <mxCell id="5vPPDH_FdWS2vNOrJjIZ-89" value="GPIO&lt;span style=&quot;background-color: initial;&quot;&gt;x4&lt;/span&gt;" style="rounded=0;whiteSpace=wrap;html=1;" parent="5vPPDH_FdWS2vNOrJjIZ-1" vertex="1">
          <mxGeometry x="315" y="410" width="45" height="20" as="geometry" />
        </mxCell>
        <mxCell id="5vPPDH_FdWS2vNOrJjIZ-90" value="&lt;table class=&quot;NormalTable&quot;&gt;&lt;tbody&gt;&lt;tr&gt;&lt;td style=&quot;border-left-style:none;border-bottom-style:none;border-right-style:none;border-top-style:none;&quot; width=&quot;200&quot;&gt;&lt;span class=&quot;fontstyle0&quot;&gt;Источник постоянного тока&lt;/span&gt;&lt;/td&gt;&lt;/tr&gt;&lt;/tbody&gt;&lt;/table&gt;для питания ДТ" style="rounded=0;whiteSpace=wrap;html=1;" parent="5vPPDH_FdWS2vNOrJjIZ-1" vertex="1">
          <mxGeometry x="490" y="230" width="110" height="50" as="geometry" />
        </mxCell>
        <mxCell id="5vPPDH_FdWS2vNOrJjIZ-91" value="USB1" style="rounded=0;whiteSpace=wrap;html=1;" parent="5vPPDH_FdWS2vNOrJjIZ-1" vertex="1">
          <mxGeometry x="135" y="260" width="50" height="20" as="geometry" />
        </mxCell>
        <mxCell id="5vPPDH_FdWS2vNOrJjIZ-93" value="&lt;table class=&quot;NormalTable&quot;&gt;&lt;tbody&gt;&lt;tr&gt;&lt;td style=&quot;border-left-style:none;border-bottom-style:none;border-right-style:none;border-top-style:none;&quot; width=&quot;200&quot;&gt;&lt;span class=&quot;fontstyle0&quot;&gt;Источник постоянного измеряемого тока&lt;/span&gt;&lt;/td&gt;&lt;/tr&gt;&lt;/tbody&gt;&lt;/table&gt;" style="rounded=0;whiteSpace=wrap;html=1;" parent="5vPPDH_FdWS2vNOrJjIZ-1" vertex="1">
          <mxGeometry x="490" y="150" width="110" height="50" as="geometry" />
        </mxCell>
        <mxCell id="5vPPDH_FdWS2vNOrJjIZ-94" value="USB2" style="rounded=0;whiteSpace=wrap;html=1;" parent="5vPPDH_FdWS2vNOrJjIZ-1" vertex="1">
          <mxGeometry x="380" y="165" width="50" height="20" as="geometry" />
        </mxCell>
        <mxCell id="5vPPDH_FdWS2vNOrJjIZ-95" value="USB3" style="rounded=0;whiteSpace=wrap;html=1;" parent="5vPPDH_FdWS2vNOrJjIZ-1" vertex="1">
          <mxGeometry x="380" y="210" width="50" height="20" as="geometry" />
        </mxCell>
        <mxCell id="5vPPDH_FdWS2vNOrJjIZ-98" value="" style="endArrow=classic;html=1;rounded=0;entryX=0.5;entryY=0;entryDx=0;entryDy=0;strokeColor=#FF0000;strokeWidth=3;exitX=0.5;exitY=1;exitDx=0;exitDy=0;" parent="5vPPDH_FdWS2vNOrJjIZ-1" source="5vPPDH_FdWS2vNOrJjIZ-90" target="5vPPDH_FdWS2vNOrJjIZ-65" edge="1">
          <mxGeometry width="50" height="50" relative="1" as="geometry">
            <mxPoint x="554.66" y="280" as="sourcePoint" />
            <mxPoint x="554.66" y="320" as="targetPoint" />
          </mxGeometry>
        </mxCell>
        <mxCell id="5vPPDH_FdWS2vNOrJjIZ-99" value="" style="endArrow=none;html=1;rounded=0;exitDx=0;exitDy=0;entryDx=0;entryDy=0;strokeColor=#FFB366;endFill=0;" parent="5vPPDH_FdWS2vNOrJjIZ-1" edge="1">
          <mxGeometry width="50" height="50" relative="1" as="geometry">
            <mxPoint x="399.83" y="610" as="sourcePoint" />
            <mxPoint x="399.83" y="490" as="targetPoint" />
            <Array as="points" />
          </mxGeometry>
        </mxCell>
        <mxCell id="5vPPDH_FdWS2vNOrJjIZ-101" value="" style="endArrow=classic;html=1;rounded=0;entryDx=0;entryDy=0;strokeColor=#FFB366;" parent="5vPPDH_FdWS2vNOrJjIZ-1" edge="1">
          <mxGeometry width="50" height="50" relative="1" as="geometry">
            <mxPoint x="390" y="550" as="sourcePoint" />
            <mxPoint x="390" y="550" as="targetPoint" />
          </mxGeometry>
        </mxCell>
        <mxCell id="5vPPDH_FdWS2vNOrJjIZ-102" value="" style="shape=waypoint;sketch=0;fillStyle=solid;size=6;pointerEvents=1;points=[];fillColor=none;resizable=0;rotatable=0;perimeter=centerPerimeter;snapToPoint=1;strokeColor=#FFB366;" parent="5vPPDH_FdWS2vNOrJjIZ-1" vertex="1">
          <mxGeometry x="390" y="540" width="20" height="20" as="geometry" />
        </mxCell>
        <mxCell id="30j-dPES7vWr_bBKj393-1" value="&lt;div&gt;Разъём&lt;/div&gt;&lt;div&gt;измерения&lt;/div&gt;" style="rounded=0;whiteSpace=wrap;html=1;fillColor=#fff2cc;strokeColor=#d6b656;" parent="5vPPDH_FdWS2vNOrJjIZ-1" vertex="1">
          <mxGeometry x="645" y="320" width="90" height="40" as="geometry" />
        </mxCell>
        <mxCell id="30j-dPES7vWr_bBKj393-8" value="&lt;div&gt;Разъёмы&amp;nbsp;&lt;/div&gt;&lt;div&gt;группы №1&lt;/div&gt;" style="rounded=0;whiteSpace=wrap;html=1;fillColor=#fff2cc;strokeColor=#d6b656;" parent="5vPPDH_FdWS2vNOrJjIZ-1" vertex="1">
          <mxGeometry x="710" y="400" width="80" height="40" as="geometry" />
        </mxCell>
        <mxCell id="30j-dPES7vWr_bBKj393-12" value="" style="endArrow=classic;startArrow=classic;html=1;rounded=0;entryX=0.5;entryY=1;entryDx=0;entryDy=0;" parent="5vPPDH_FdWS2vNOrJjIZ-1" edge="1">
          <mxGeometry width="50" height="50" relative="1" as="geometry">
            <mxPoint x="160" y="400" as="sourcePoint" />
            <mxPoint x="159.66" y="360" as="targetPoint" />
          </mxGeometry>
        </mxCell>
        <mxCell id="30j-dPES7vWr_bBKj393-13" value="USB" style="edgeLabel;html=1;align=center;verticalAlign=middle;resizable=0;points=[];" parent="30j-dPES7vWr_bBKj393-12" vertex="1" connectable="0">
          <mxGeometry relative="1" as="geometry">
            <mxPoint x="18" as="offset" />
          </mxGeometry>
        </mxCell>
        <mxCell id="30j-dPES7vWr_bBKj393-14" value="Вольтметр" style="rounded=0;whiteSpace=wrap;html=1;" parent="5vPPDH_FdWS2vNOrJjIZ-1" vertex="1">
          <mxGeometry x="645" y="240" width="90" height="40" as="geometry" />
        </mxCell>
        <mxCell id="30j-dPES7vWr_bBKj393-16" value="" style="endArrow=classic;html=1;rounded=0;entryX=1;entryY=0.25;entryDx=0;entryDy=0;" parent="5vPPDH_FdWS2vNOrJjIZ-1" target="30j-dPES7vWr_bBKj393-8" edge="1">
          <mxGeometry width="50" height="50" relative="1" as="geometry">
            <mxPoint x="850" y="410" as="sourcePoint" />
            <mxPoint x="760" y="490" as="targetPoint" />
          </mxGeometry>
        </mxCell>
        <mxCell id="30j-dPES7vWr_bBKj393-17" value="" style="endArrow=classic;html=1;rounded=0;entryX=1;entryY=0.75;entryDx=0;entryDy=0;strokeColor=#FF0000;exitX=1;exitY=0.75;exitDx=0;exitDy=0;" parent="5vPPDH_FdWS2vNOrJjIZ-1" source="30j-dPES7vWr_bBKj393-8" edge="1">
          <mxGeometry width="50" height="50" relative="1" as="geometry">
            <mxPoint x="830" y="470" as="sourcePoint" />
            <mxPoint x="850" y="430" as="targetPoint" />
          </mxGeometry>
        </mxCell>
        <mxCell id="30j-dPES7vWr_bBKj393-18" value="" style="endArrow=none;html=1;rounded=0;strokeColor=#FF0000;" parent="5vPPDH_FdWS2vNOrJjIZ-1" edge="1">
          <mxGeometry width="50" height="50" relative="1" as="geometry">
            <mxPoint x="807" y="440" as="sourcePoint" />
            <mxPoint x="827" y="420" as="targetPoint" />
          </mxGeometry>
        </mxCell>
        <mxCell id="30j-dPES7vWr_bBKj393-19" value="" style="endArrow=none;html=1;rounded=0;" parent="5vPPDH_FdWS2vNOrJjIZ-1" edge="1">
          <mxGeometry width="50" height="50" relative="1" as="geometry">
            <mxPoint x="807" y="420" as="sourcePoint" />
            <mxPoint x="827" y="400" as="targetPoint" />
          </mxGeometry>
        </mxCell>
        <mxCell id="30j-dPES7vWr_bBKj393-20" value="8" style="text;html=1;align=center;verticalAlign=middle;whiteSpace=wrap;rounded=0;" parent="5vPPDH_FdWS2vNOrJjIZ-1" vertex="1">
          <mxGeometry x="820" y="390" width="20" height="10" as="geometry" />
        </mxCell>
        <mxCell id="30j-dPES7vWr_bBKj393-21" value="8" style="text;html=1;align=center;verticalAlign=middle;whiteSpace=wrap;rounded=0;" parent="5vPPDH_FdWS2vNOrJjIZ-1" vertex="1">
          <mxGeometry x="820" y="410" width="20" height="10" as="geometry" />
        </mxCell>
        <mxCell id="30j-dPES7vWr_bBKj393-42" value="Ключи&amp;nbsp;&lt;span style=&quot;background-color: initial;&quot;&gt;питания группы&amp;nbsp;&lt;/span&gt;&lt;span style=&quot;background-color: initial;&quot;&gt;№2&lt;/span&gt;" style="rounded=0;whiteSpace=wrap;html=1;" parent="5vPPDH_FdWS2vNOrJjIZ-1" vertex="1">
          <mxGeometry x="560" y="460" width="90" height="40" as="geometry" />
        </mxCell>
        <mxCell id="30j-dPES7vWr_bBKj393-43" value="Ключи&amp;nbsp;&lt;span style=&quot;background-color: initial;&quot;&gt;питания группы&amp;nbsp;&lt;/span&gt;&lt;span style=&quot;background-color: initial;&quot;&gt;№3&lt;/span&gt;" style="rounded=0;whiteSpace=wrap;html=1;" parent="5vPPDH_FdWS2vNOrJjIZ-1" vertex="1">
          <mxGeometry x="560" y="520" width="90" height="40" as="geometry" />
        </mxCell>
        <mxCell id="30j-dPES7vWr_bBKj393-44" value="Ключи&amp;nbsp;&lt;span style=&quot;background-color: initial;&quot;&gt;питания группы&amp;nbsp;&lt;/span&gt;&lt;span style=&quot;background-color: initial;&quot;&gt;№4&lt;/span&gt;" style="rounded=0;whiteSpace=wrap;html=1;" parent="5vPPDH_FdWS2vNOrJjIZ-1" vertex="1">
          <mxGeometry x="560" y="580" width="90" height="40" as="geometry" />
        </mxCell>
        <mxCell id="30j-dPES7vWr_bBKj393-45" value="" style="endArrow=classic;html=1;rounded=0;exitDx=0;exitDy=0;strokeColor=#FFB366;" parent="5vPPDH_FdWS2vNOrJjIZ-1" edge="1">
          <mxGeometry width="50" height="50" relative="1" as="geometry">
            <mxPoint x="390" y="490" as="sourcePoint" />
            <mxPoint x="390" y="490" as="targetPoint" />
            <Array as="points" />
          </mxGeometry>
        </mxCell>
        <mxCell id="5vPPDH_FdWS2vNOrJjIZ-100" value="" style="shape=waypoint;sketch=0;fillStyle=solid;size=6;pointerEvents=1;points=[];fillColor=none;resizable=0;rotatable=0;perimeter=centerPerimeter;snapToPoint=1;strokeColor=#FFB366;" parent="5vPPDH_FdWS2vNOrJjIZ-1" vertex="1">
          <mxGeometry x="390" y="480" width="20" height="20" as="geometry" />
        </mxCell>
        <mxCell id="30j-dPES7vWr_bBKj393-47" value="" style="endArrow=none;html=1;rounded=0;entryDx=0;entryDy=0;strokeColor=#FFB366;endFill=0;exitX=0.5;exitY=1;exitDx=0;exitDy=0;" parent="5vPPDH_FdWS2vNOrJjIZ-1" source="5vPPDH_FdWS2vNOrJjIZ-76" target="30j-dPES7vWr_bBKj393-46" edge="1">
          <mxGeometry width="50" height="50" relative="1" as="geometry">
            <mxPoint x="360" y="650" as="sourcePoint" />
            <mxPoint x="400" y="490" as="targetPoint" />
            <Array as="points">
              <mxPoint x="160" y="640" />
              <mxPoint x="400" y="640" />
            </Array>
          </mxGeometry>
        </mxCell>
        <mxCell id="30j-dPES7vWr_bBKj393-46" value="" style="shape=waypoint;sketch=0;fillStyle=solid;size=6;pointerEvents=1;points=[];fillColor=none;resizable=0;rotatable=0;perimeter=centerPerimeter;snapToPoint=1;strokeColor=#FFB366;" parent="5vPPDH_FdWS2vNOrJjIZ-1" vertex="1">
          <mxGeometry x="390" y="600" width="20" height="20" as="geometry" />
        </mxCell>
        <mxCell id="30j-dPES7vWr_bBKj393-48" value="" style="endArrow=classic;html=1;rounded=0;strokeColor=#FFB366;" parent="5vPPDH_FdWS2vNOrJjIZ-1" edge="1">
          <mxGeometry width="50" height="50" relative="1" as="geometry">
            <mxPoint x="400" y="489.8" as="sourcePoint" />
            <mxPoint x="430" y="490" as="targetPoint" />
          </mxGeometry>
        </mxCell>
        <mxCell id="30j-dPES7vWr_bBKj393-49" value="" style="endArrow=classic;html=1;rounded=0;entryX=0;entryY=0.5;entryDx=0;entryDy=0;" parent="5vPPDH_FdWS2vNOrJjIZ-1" target="5vPPDH_FdWS2vNOrJjIZ-8" edge="1">
          <mxGeometry width="50" height="50" relative="1" as="geometry">
            <mxPoint x="360" y="420" as="sourcePoint" />
            <mxPoint x="440" y="320" as="targetPoint" />
          </mxGeometry>
        </mxCell>
        <mxCell id="30j-dPES7vWr_bBKj393-50" value="MUX №1&lt;div&gt;8 каналов&lt;/div&gt;" style="rounded=0;whiteSpace=wrap;html=1;" parent="5vPPDH_FdWS2vNOrJjIZ-1" vertex="1">
          <mxGeometry x="1180" y="125" width="80" height="40" as="geometry" />
        </mxCell>
        <mxCell id="30j-dPES7vWr_bBKj393-51" value="&lt;h1&gt;74HC4051M/TR&lt;/h1&gt;" style="text;whiteSpace=wrap;html=1;" parent="5vPPDH_FdWS2vNOrJjIZ-1" vertex="1">
          <mxGeometry x="1270" y="105" width="210" height="80" as="geometry" />
        </mxCell>
        <mxCell id="30j-dPES7vWr_bBKj393-52" value="" style="endArrow=none;html=1;rounded=0;" parent="5vPPDH_FdWS2vNOrJjIZ-1" edge="1">
          <mxGeometry width="50" height="50" relative="1" as="geometry">
            <mxPoint x="370" y="430" as="sourcePoint" />
            <mxPoint x="390" y="410" as="targetPoint" />
          </mxGeometry>
        </mxCell>
        <mxCell id="30j-dPES7vWr_bBKj393-53" value="4" style="text;html=1;align=center;verticalAlign=middle;whiteSpace=wrap;rounded=0;" parent="5vPPDH_FdWS2vNOrJjIZ-1" vertex="1">
          <mxGeometry x="360" y="430" width="20" height="10" as="geometry" />
        </mxCell>
        <mxCell id="30j-dPES7vWr_bBKj393-54" value="" style="endArrow=classic;html=1;rounded=0;" parent="5vPPDH_FdWS2vNOrJjIZ-1" edge="1">
          <mxGeometry width="50" height="50" relative="1" as="geometry">
            <mxPoint x="360" y="480" as="sourcePoint" />
            <mxPoint x="430" y="480" as="targetPoint" />
          </mxGeometry>
        </mxCell>
        <mxCell id="30j-dPES7vWr_bBKj393-55" value="" style="endArrow=none;html=1;rounded=0;" parent="5vPPDH_FdWS2vNOrJjIZ-1" edge="1">
          <mxGeometry width="50" height="50" relative="1" as="geometry">
            <mxPoint x="370" y="490" as="sourcePoint" />
            <mxPoint x="390" y="470" as="targetPoint" />
          </mxGeometry>
        </mxCell>
        <mxCell id="30j-dPES7vWr_bBKj393-56" value="4" style="text;html=1;align=center;verticalAlign=middle;whiteSpace=wrap;rounded=0;" parent="5vPPDH_FdWS2vNOrJjIZ-1" vertex="1">
          <mxGeometry x="360" y="490" width="20" height="10" as="geometry" />
        </mxCell>
        <mxCell id="30j-dPES7vWr_bBKj393-57" value="" style="endArrow=classic;html=1;rounded=0;" parent="5vPPDH_FdWS2vNOrJjIZ-1" edge="1">
          <mxGeometry width="50" height="50" relative="1" as="geometry">
            <mxPoint x="360" y="540" as="sourcePoint" />
            <mxPoint x="430" y="540" as="targetPoint" />
          </mxGeometry>
        </mxCell>
        <mxCell id="30j-dPES7vWr_bBKj393-58" value="" style="endArrow=none;html=1;rounded=0;" parent="5vPPDH_FdWS2vNOrJjIZ-1" edge="1">
          <mxGeometry width="50" height="50" relative="1" as="geometry">
            <mxPoint x="370" y="550" as="sourcePoint" />
            <mxPoint x="390" y="530" as="targetPoint" />
          </mxGeometry>
        </mxCell>
        <mxCell id="30j-dPES7vWr_bBKj393-59" value="4" style="text;html=1;align=center;verticalAlign=middle;whiteSpace=wrap;rounded=0;" parent="5vPPDH_FdWS2vNOrJjIZ-1" vertex="1">
          <mxGeometry x="360" y="550" width="20" height="10" as="geometry" />
        </mxCell>
        <mxCell id="30j-dPES7vWr_bBKj393-60" value="" style="endArrow=classic;html=1;rounded=0;" parent="5vPPDH_FdWS2vNOrJjIZ-1" edge="1">
          <mxGeometry width="50" height="50" relative="1" as="geometry">
            <mxPoint x="360" y="600" as="sourcePoint" />
            <mxPoint x="430" y="600" as="targetPoint" />
          </mxGeometry>
        </mxCell>
        <mxCell id="30j-dPES7vWr_bBKj393-61" value="" style="endArrow=none;html=1;rounded=0;" parent="5vPPDH_FdWS2vNOrJjIZ-1" edge="1">
          <mxGeometry width="50" height="50" relative="1" as="geometry">
            <mxPoint x="370" y="610" as="sourcePoint" />
            <mxPoint x="390" y="590" as="targetPoint" />
          </mxGeometry>
        </mxCell>
        <mxCell id="30j-dPES7vWr_bBKj393-62" value="4" style="text;html=1;align=center;verticalAlign=middle;whiteSpace=wrap;rounded=0;" parent="5vPPDH_FdWS2vNOrJjIZ-1" vertex="1">
          <mxGeometry x="360" y="610" width="20" height="10" as="geometry" />
        </mxCell>
        <mxCell id="30j-dPES7vWr_bBKj393-63" value="GPIO&lt;span style=&quot;background-color: initial;&quot;&gt;x4&lt;/span&gt;" style="rounded=0;whiteSpace=wrap;html=1;" parent="5vPPDH_FdWS2vNOrJjIZ-1" vertex="1">
          <mxGeometry x="315" y="470" width="45" height="20" as="geometry" />
        </mxCell>
        <mxCell id="30j-dPES7vWr_bBKj393-64" value="GPIO&lt;span style=&quot;background-color: initial;&quot;&gt;x4&lt;/span&gt;" style="rounded=0;whiteSpace=wrap;html=1;" parent="5vPPDH_FdWS2vNOrJjIZ-1" vertex="1">
          <mxGeometry x="315" y="530" width="45" height="20" as="geometry" />
        </mxCell>
        <mxCell id="30j-dPES7vWr_bBKj393-65" value="GPIO&lt;span style=&quot;background-color: initial;&quot;&gt;x4&lt;/span&gt;" style="rounded=0;whiteSpace=wrap;html=1;" parent="5vPPDH_FdWS2vNOrJjIZ-1" vertex="1">
          <mxGeometry x="315" y="590" width="45" height="20" as="geometry" />
        </mxCell>
        <mxCell id="30j-dPES7vWr_bBKj393-66" value="" style="endArrow=classic;html=1;rounded=0;exitX=1;exitY=0.5;exitDx=0;exitDy=0;" parent="5vPPDH_FdWS2vNOrJjIZ-1" source="5vPPDH_FdWS2vNOrJjIZ-8" edge="1">
          <mxGeometry width="50" height="50" relative="1" as="geometry">
            <mxPoint x="520" y="420" as="sourcePoint" />
            <mxPoint x="560" y="420" as="targetPoint" />
          </mxGeometry>
        </mxCell>
        <mxCell id="30j-dPES7vWr_bBKj393-67" value="" style="endArrow=none;html=1;rounded=0;" parent="5vPPDH_FdWS2vNOrJjIZ-1" edge="1">
          <mxGeometry width="50" height="50" relative="1" as="geometry">
            <mxPoint x="520" y="430" as="sourcePoint" />
            <mxPoint x="540" y="410" as="targetPoint" />
          </mxGeometry>
        </mxCell>
        <mxCell id="30j-dPES7vWr_bBKj393-68" value="8" style="text;html=1;align=center;verticalAlign=middle;whiteSpace=wrap;rounded=0;" parent="5vPPDH_FdWS2vNOrJjIZ-1" vertex="1">
          <mxGeometry x="510" y="430" width="20" height="10" as="geometry" />
        </mxCell>
        <mxCell id="30j-dPES7vWr_bBKj393-79" value="" style="endArrow=none;html=1;rounded=0;strokeColor=#FF0000;" parent="5vPPDH_FdWS2vNOrJjIZ-1" edge="1">
          <mxGeometry width="50" height="50" relative="1" as="geometry">
            <mxPoint x="660" y="430" as="sourcePoint" />
            <mxPoint x="680" y="410" as="targetPoint" />
            <Array as="points">
              <mxPoint x="660" y="430" />
            </Array>
          </mxGeometry>
        </mxCell>
        <mxCell id="30j-dPES7vWr_bBKj393-80" value="8" style="text;html=1;align=center;verticalAlign=middle;whiteSpace=wrap;rounded=0;" parent="5vPPDH_FdWS2vNOrJjIZ-1" vertex="1">
          <mxGeometry x="650" y="430" width="20" height="10" as="geometry" />
        </mxCell>
        <mxCell id="30j-dPES7vWr_bBKj393-81" value="" style="endArrow=classic;html=1;rounded=0;exitX=1;exitY=0.5;exitDx=0;exitDy=0;strokeColor=#FF0000;" parent="5vPPDH_FdWS2vNOrJjIZ-1" source="5vPPDH_FdWS2vNOrJjIZ-7" edge="1">
          <mxGeometry width="50" height="50" relative="1" as="geometry">
            <mxPoint x="690" y="415" as="sourcePoint" />
            <mxPoint x="710" y="420" as="targetPoint" />
          </mxGeometry>
        </mxCell>
        <mxCell id="30j-dPES7vWr_bBKj393-83" value="" style="endArrow=none;html=1;rounded=0;strokeColor=#FF0000;" parent="5vPPDH_FdWS2vNOrJjIZ-1" edge="1">
          <mxGeometry width="50" height="50" relative="1" as="geometry">
            <mxPoint x="660" y="490" as="sourcePoint" />
            <mxPoint x="680" y="470" as="targetPoint" />
            <Array as="points">
              <mxPoint x="660" y="490" />
            </Array>
          </mxGeometry>
        </mxCell>
        <mxCell id="30j-dPES7vWr_bBKj393-84" value="8" style="text;html=1;align=center;verticalAlign=middle;whiteSpace=wrap;rounded=0;" parent="5vPPDH_FdWS2vNOrJjIZ-1" vertex="1">
          <mxGeometry x="650" y="490" width="20" height="10" as="geometry" />
        </mxCell>
        <mxCell id="30j-dPES7vWr_bBKj393-85" value="" style="endArrow=classic;html=1;rounded=0;exitX=1;exitY=0.5;exitDx=0;exitDy=0;strokeColor=#FF0000;" parent="5vPPDH_FdWS2vNOrJjIZ-1" edge="1">
          <mxGeometry width="50" height="50" relative="1" as="geometry">
            <mxPoint x="650" y="480" as="sourcePoint" />
            <mxPoint x="710" y="480" as="targetPoint" />
          </mxGeometry>
        </mxCell>
        <mxCell id="30j-dPES7vWr_bBKj393-86" value="" style="endArrow=none;html=1;rounded=0;strokeColor=#FF0000;" parent="5vPPDH_FdWS2vNOrJjIZ-1" edge="1">
          <mxGeometry width="50" height="50" relative="1" as="geometry">
            <mxPoint x="660" y="550" as="sourcePoint" />
            <mxPoint x="680" y="530" as="targetPoint" />
            <Array as="points">
              <mxPoint x="660" y="550" />
            </Array>
          </mxGeometry>
        </mxCell>
        <mxCell id="30j-dPES7vWr_bBKj393-87" value="8" style="text;html=1;align=center;verticalAlign=middle;whiteSpace=wrap;rounded=0;" parent="5vPPDH_FdWS2vNOrJjIZ-1" vertex="1">
          <mxGeometry x="650" y="550" width="20" height="10" as="geometry" />
        </mxCell>
        <mxCell id="30j-dPES7vWr_bBKj393-88" value="" style="endArrow=classic;html=1;rounded=0;exitX=1;exitY=0.5;exitDx=0;exitDy=0;strokeColor=#FF0000;" parent="5vPPDH_FdWS2vNOrJjIZ-1" edge="1">
          <mxGeometry width="50" height="50" relative="1" as="geometry">
            <mxPoint x="650" y="540" as="sourcePoint" />
            <mxPoint x="710" y="540" as="targetPoint" />
          </mxGeometry>
        </mxCell>
        <mxCell id="30j-dPES7vWr_bBKj393-89" value="" style="endArrow=none;html=1;rounded=0;strokeColor=#FF0000;" parent="5vPPDH_FdWS2vNOrJjIZ-1" edge="1">
          <mxGeometry width="50" height="50" relative="1" as="geometry">
            <mxPoint x="660" y="610" as="sourcePoint" />
            <mxPoint x="680" y="590" as="targetPoint" />
            <Array as="points">
              <mxPoint x="660" y="610" />
            </Array>
          </mxGeometry>
        </mxCell>
        <mxCell id="30j-dPES7vWr_bBKj393-90" value="8" style="text;html=1;align=center;verticalAlign=middle;whiteSpace=wrap;rounded=0;" parent="5vPPDH_FdWS2vNOrJjIZ-1" vertex="1">
          <mxGeometry x="650" y="610" width="20" height="10" as="geometry" />
        </mxCell>
        <mxCell id="30j-dPES7vWr_bBKj393-91" value="" style="endArrow=classic;html=1;rounded=0;exitX=1;exitY=0.5;exitDx=0;exitDy=0;strokeColor=#FF0000;" parent="5vPPDH_FdWS2vNOrJjIZ-1" edge="1">
          <mxGeometry width="50" height="50" relative="1" as="geometry">
            <mxPoint x="650" y="600" as="sourcePoint" />
            <mxPoint x="710" y="600" as="targetPoint" />
          </mxGeometry>
        </mxCell>
        <mxCell id="30j-dPES7vWr_bBKj393-92" value="&lt;div&gt;Разъёмы&amp;nbsp;&lt;/div&gt;&lt;div&gt;группы №4&lt;/div&gt;" style="rounded=0;whiteSpace=wrap;html=1;" parent="5vPPDH_FdWS2vNOrJjIZ-1" vertex="1">
          <mxGeometry x="1180" y="185" width="80" height="40" as="geometry" />
        </mxCell>
        <mxCell id="30j-dPES7vWr_bBKj393-93" value="Разъём DPBS-37M" style="text;whiteSpace=wrap;" parent="5vPPDH_FdWS2vNOrJjIZ-1" vertex="1">
          <mxGeometry x="1270" y="190" width="140" height="40" as="geometry" />
        </mxCell>
        <mxCell id="30j-dPES7vWr_bBKj393-96" value="&lt;div&gt;Разъёмы&amp;nbsp;&lt;/div&gt;&lt;div&gt;группы №2&lt;/div&gt;" style="rounded=0;whiteSpace=wrap;html=1;fillColor=#fff2cc;strokeColor=#d6b656;" parent="5vPPDH_FdWS2vNOrJjIZ-1" vertex="1">
          <mxGeometry x="710" y="460" width="80" height="40" as="geometry" />
        </mxCell>
        <mxCell id="30j-dPES7vWr_bBKj393-97" value="" style="endArrow=classic;html=1;rounded=0;entryX=1;entryY=0.25;entryDx=0;entryDy=0;" parent="5vPPDH_FdWS2vNOrJjIZ-1" target="30j-dPES7vWr_bBKj393-96" edge="1">
          <mxGeometry width="50" height="50" relative="1" as="geometry">
            <mxPoint x="850" y="470" as="sourcePoint" />
            <mxPoint x="760" y="550" as="targetPoint" />
          </mxGeometry>
        </mxCell>
        <mxCell id="30j-dPES7vWr_bBKj393-98" value="" style="endArrow=classic;html=1;rounded=0;entryX=1;entryY=0.75;entryDx=0;entryDy=0;strokeColor=#FF0000;exitX=1;exitY=0.75;exitDx=0;exitDy=0;" parent="5vPPDH_FdWS2vNOrJjIZ-1" source="30j-dPES7vWr_bBKj393-96" edge="1">
          <mxGeometry width="50" height="50" relative="1" as="geometry">
            <mxPoint x="830" y="530" as="sourcePoint" />
            <mxPoint x="850" y="490" as="targetPoint" />
          </mxGeometry>
        </mxCell>
        <mxCell id="30j-dPES7vWr_bBKj393-99" value="" style="endArrow=none;html=1;rounded=0;strokeColor=#FF0000;" parent="5vPPDH_FdWS2vNOrJjIZ-1" edge="1">
          <mxGeometry width="50" height="50" relative="1" as="geometry">
            <mxPoint x="807" y="500" as="sourcePoint" />
            <mxPoint x="827" y="480" as="targetPoint" />
          </mxGeometry>
        </mxCell>
        <mxCell id="30j-dPES7vWr_bBKj393-100" value="" style="endArrow=none;html=1;rounded=0;" parent="5vPPDH_FdWS2vNOrJjIZ-1" edge="1">
          <mxGeometry width="50" height="50" relative="1" as="geometry">
            <mxPoint x="807" y="480" as="sourcePoint" />
            <mxPoint x="827" y="460" as="targetPoint" />
          </mxGeometry>
        </mxCell>
        <mxCell id="30j-dPES7vWr_bBKj393-101" value="8" style="text;html=1;align=center;verticalAlign=middle;whiteSpace=wrap;rounded=0;" parent="5vPPDH_FdWS2vNOrJjIZ-1" vertex="1">
          <mxGeometry x="820" y="450" width="20" height="10" as="geometry" />
        </mxCell>
        <mxCell id="30j-dPES7vWr_bBKj393-102" value="8" style="text;html=1;align=center;verticalAlign=middle;whiteSpace=wrap;rounded=0;" parent="5vPPDH_FdWS2vNOrJjIZ-1" vertex="1">
          <mxGeometry x="820" y="470" width="20" height="10" as="geometry" />
        </mxCell>
        <mxCell id="30j-dPES7vWr_bBKj393-104" value="&lt;div&gt;Разъёмы&amp;nbsp;&lt;/div&gt;&lt;div&gt;группы №3&lt;/div&gt;" style="rounded=0;whiteSpace=wrap;html=1;fillColor=#fff2cc;strokeColor=#d6b656;" parent="5vPPDH_FdWS2vNOrJjIZ-1" vertex="1">
          <mxGeometry x="710" y="520" width="80" height="40" as="geometry" />
        </mxCell>
        <mxCell id="30j-dPES7vWr_bBKj393-105" value="" style="endArrow=classic;html=1;rounded=0;entryX=1;entryY=0.25;entryDx=0;entryDy=0;" parent="5vPPDH_FdWS2vNOrJjIZ-1" target="30j-dPES7vWr_bBKj393-104" edge="1">
          <mxGeometry width="50" height="50" relative="1" as="geometry">
            <mxPoint x="850" y="530" as="sourcePoint" />
            <mxPoint x="760" y="610" as="targetPoint" />
          </mxGeometry>
        </mxCell>
        <mxCell id="30j-dPES7vWr_bBKj393-106" value="" style="endArrow=classic;html=1;rounded=0;entryX=1;entryY=0.75;entryDx=0;entryDy=0;strokeColor=#FF0000;exitX=1;exitY=0.75;exitDx=0;exitDy=0;" parent="5vPPDH_FdWS2vNOrJjIZ-1" source="30j-dPES7vWr_bBKj393-104" edge="1">
          <mxGeometry width="50" height="50" relative="1" as="geometry">
            <mxPoint x="830" y="590" as="sourcePoint" />
            <mxPoint x="850" y="550" as="targetPoint" />
          </mxGeometry>
        </mxCell>
        <mxCell id="30j-dPES7vWr_bBKj393-107" value="" style="endArrow=none;html=1;rounded=0;strokeColor=#FF0000;" parent="5vPPDH_FdWS2vNOrJjIZ-1" edge="1">
          <mxGeometry width="50" height="50" relative="1" as="geometry">
            <mxPoint x="807" y="560" as="sourcePoint" />
            <mxPoint x="827" y="540" as="targetPoint" />
          </mxGeometry>
        </mxCell>
        <mxCell id="30j-dPES7vWr_bBKj393-108" value="" style="endArrow=none;html=1;rounded=0;" parent="5vPPDH_FdWS2vNOrJjIZ-1" edge="1">
          <mxGeometry width="50" height="50" relative="1" as="geometry">
            <mxPoint x="807" y="540" as="sourcePoint" />
            <mxPoint x="827" y="520" as="targetPoint" />
          </mxGeometry>
        </mxCell>
        <mxCell id="30j-dPES7vWr_bBKj393-109" value="8" style="text;html=1;align=center;verticalAlign=middle;whiteSpace=wrap;rounded=0;" parent="5vPPDH_FdWS2vNOrJjIZ-1" vertex="1">
          <mxGeometry x="820" y="510" width="20" height="10" as="geometry" />
        </mxCell>
        <mxCell id="30j-dPES7vWr_bBKj393-110" value="8" style="text;html=1;align=center;verticalAlign=middle;whiteSpace=wrap;rounded=0;" parent="5vPPDH_FdWS2vNOrJjIZ-1" vertex="1">
          <mxGeometry x="820" y="530" width="20" height="10" as="geometry" />
        </mxCell>
        <mxCell id="30j-dPES7vWr_bBKj393-112" value="&lt;div&gt;Разъёмы&amp;nbsp;&lt;/div&gt;&lt;div&gt;группы №4&lt;/div&gt;" style="rounded=0;whiteSpace=wrap;html=1;fillColor=#fff2cc;strokeColor=#d6b656;" parent="5vPPDH_FdWS2vNOrJjIZ-1" vertex="1">
          <mxGeometry x="710" y="580" width="80" height="40" as="geometry" />
        </mxCell>
        <mxCell id="30j-dPES7vWr_bBKj393-113" value="" style="endArrow=classic;html=1;rounded=0;entryX=1;entryY=0.25;entryDx=0;entryDy=0;" parent="5vPPDH_FdWS2vNOrJjIZ-1" target="30j-dPES7vWr_bBKj393-112" edge="1">
          <mxGeometry width="50" height="50" relative="1" as="geometry">
            <mxPoint x="850" y="590" as="sourcePoint" />
            <mxPoint x="760" y="670" as="targetPoint" />
          </mxGeometry>
        </mxCell>
        <mxCell id="30j-dPES7vWr_bBKj393-114" value="" style="endArrow=classic;html=1;rounded=0;entryX=1;entryY=0.75;entryDx=0;entryDy=0;strokeColor=#FF0000;exitX=1;exitY=0.75;exitDx=0;exitDy=0;" parent="5vPPDH_FdWS2vNOrJjIZ-1" source="30j-dPES7vWr_bBKj393-112" edge="1">
          <mxGeometry width="50" height="50" relative="1" as="geometry">
            <mxPoint x="830" y="650" as="sourcePoint" />
            <mxPoint x="850" y="610" as="targetPoint" />
          </mxGeometry>
        </mxCell>
        <mxCell id="30j-dPES7vWr_bBKj393-115" value="" style="endArrow=none;html=1;rounded=0;strokeColor=#FF0000;" parent="5vPPDH_FdWS2vNOrJjIZ-1" edge="1">
          <mxGeometry width="50" height="50" relative="1" as="geometry">
            <mxPoint x="807" y="620" as="sourcePoint" />
            <mxPoint x="827" y="600" as="targetPoint" />
          </mxGeometry>
        </mxCell>
        <mxCell id="30j-dPES7vWr_bBKj393-116" value="" style="endArrow=none;html=1;rounded=0;" parent="5vPPDH_FdWS2vNOrJjIZ-1" edge="1">
          <mxGeometry width="50" height="50" relative="1" as="geometry">
            <mxPoint x="807" y="600" as="sourcePoint" />
            <mxPoint x="827" y="580" as="targetPoint" />
          </mxGeometry>
        </mxCell>
        <mxCell id="30j-dPES7vWr_bBKj393-117" value="8" style="text;html=1;align=center;verticalAlign=middle;whiteSpace=wrap;rounded=0;" parent="5vPPDH_FdWS2vNOrJjIZ-1" vertex="1">
          <mxGeometry x="820" y="570" width="20" height="10" as="geometry" />
        </mxCell>
        <mxCell id="30j-dPES7vWr_bBKj393-118" value="8" style="text;html=1;align=center;verticalAlign=middle;whiteSpace=wrap;rounded=0;" parent="5vPPDH_FdWS2vNOrJjIZ-1" vertex="1">
          <mxGeometry x="820" y="590" width="20" height="10" as="geometry" />
        </mxCell>
        <mxCell id="30j-dPES7vWr_bBKj393-119" value="" style="endArrow=none;html=1;rounded=0;entryX=0;entryY=0.25;entryDx=0;entryDy=0;" parent="5vPPDH_FdWS2vNOrJjIZ-1" source="30j-dPES7vWr_bBKj393-120" target="30j-dPES7vWr_bBKj393-8" edge="1">
          <mxGeometry width="50" height="50" relative="1" as="geometry">
            <mxPoint x="760" y="380" as="sourcePoint" />
            <mxPoint x="810" y="330" as="targetPoint" />
          </mxGeometry>
        </mxCell>
        <mxCell id="30j-dPES7vWr_bBKj393-121" value="" style="endArrow=none;html=1;rounded=0;fontColor=#FF0000;strokeColor=#330000;exitDx=0;exitDy=0;endFill=0;" parent="5vPPDH_FdWS2vNOrJjIZ-1" source="30j-dPES7vWr_bBKj393-122" target="30j-dPES7vWr_bBKj393-120" edge="1">
          <mxGeometry width="50" height="50" relative="1" as="geometry">
            <mxPoint x="710" y="590" as="sourcePoint" />
            <mxPoint x="690" y="320" as="targetPoint" />
            <Array as="points" />
          </mxGeometry>
        </mxCell>
        <mxCell id="30j-dPES7vWr_bBKj393-120" value="" style="shape=waypoint;sketch=0;fillStyle=solid;size=6;pointerEvents=1;points=[];fillColor=none;resizable=0;rotatable=0;perimeter=centerPerimeter;snapToPoint=1;" parent="5vPPDH_FdWS2vNOrJjIZ-1" vertex="1">
          <mxGeometry x="680" y="400" width="20" height="20" as="geometry" />
        </mxCell>
        <mxCell id="30j-dPES7vWr_bBKj393-123" value="" style="endArrow=none;html=1;rounded=0;fontColor=#FF0000;strokeColor=#330000;exitX=0;exitY=0.25;exitDx=0;exitDy=0;endFill=0;" parent="5vPPDH_FdWS2vNOrJjIZ-1" source="30j-dPES7vWr_bBKj393-112" target="30j-dPES7vWr_bBKj393-122" edge="1">
          <mxGeometry width="50" height="50" relative="1" as="geometry">
            <mxPoint x="710" y="590" as="sourcePoint" />
            <mxPoint x="690" y="410" as="targetPoint" />
            <Array as="points">
              <mxPoint x="690" y="590" />
            </Array>
          </mxGeometry>
        </mxCell>
        <mxCell id="30j-dPES7vWr_bBKj393-122" value="" style="shape=waypoint;sketch=0;fillStyle=solid;size=6;pointerEvents=1;points=[];fillColor=none;resizable=0;rotatable=0;perimeter=centerPerimeter;snapToPoint=1;" parent="5vPPDH_FdWS2vNOrJjIZ-1" vertex="1">
          <mxGeometry x="680" y="460" width="20" height="20" as="geometry" />
        </mxCell>
        <mxCell id="30j-dPES7vWr_bBKj393-124" value="" style="shape=waypoint;sketch=0;fillStyle=solid;size=6;pointerEvents=1;points=[];fillColor=none;resizable=0;rotatable=0;perimeter=centerPerimeter;snapToPoint=1;" parent="5vPPDH_FdWS2vNOrJjIZ-1" vertex="1">
          <mxGeometry x="680" y="520" width="20" height="20" as="geometry" />
        </mxCell>
        <mxCell id="30j-dPES7vWr_bBKj393-125" value="" style="endArrow=none;html=1;rounded=0;entryX=0;entryY=0.25;entryDx=0;entryDy=0;" parent="5vPPDH_FdWS2vNOrJjIZ-1" edge="1">
          <mxGeometry width="50" height="50" relative="1" as="geometry">
            <mxPoint x="690" y="469.86" as="sourcePoint" />
            <mxPoint x="710" y="469.86" as="targetPoint" />
          </mxGeometry>
        </mxCell>
        <mxCell id="30j-dPES7vWr_bBKj393-126" value="" style="endArrow=none;html=1;rounded=0;entryX=0;entryY=0.25;entryDx=0;entryDy=0;" parent="5vPPDH_FdWS2vNOrJjIZ-1" edge="1">
          <mxGeometry width="50" height="50" relative="1" as="geometry">
            <mxPoint x="690" y="529.71" as="sourcePoint" />
            <mxPoint x="710" y="529.71" as="targetPoint" />
          </mxGeometry>
        </mxCell>
        <mxCell id="30j-dPES7vWr_bBKj393-127" value="" style="endArrow=classic;html=1;rounded=0;exitX=1;exitY=0.5;exitDx=0;exitDy=0;" parent="5vPPDH_FdWS2vNOrJjIZ-1" edge="1">
          <mxGeometry width="50" height="50" relative="1" as="geometry">
            <mxPoint x="510" y="480" as="sourcePoint" />
            <mxPoint x="560" y="480" as="targetPoint" />
          </mxGeometry>
        </mxCell>
        <mxCell id="30j-dPES7vWr_bBKj393-128" value="" style="endArrow=none;html=1;rounded=0;" parent="5vPPDH_FdWS2vNOrJjIZ-1" edge="1">
          <mxGeometry width="50" height="50" relative="1" as="geometry">
            <mxPoint x="520" y="490" as="sourcePoint" />
            <mxPoint x="540" y="470" as="targetPoint" />
          </mxGeometry>
        </mxCell>
        <mxCell id="30j-dPES7vWr_bBKj393-129" value="8" style="text;html=1;align=center;verticalAlign=middle;whiteSpace=wrap;rounded=0;" parent="5vPPDH_FdWS2vNOrJjIZ-1" vertex="1">
          <mxGeometry x="510" y="490" width="20" height="10" as="geometry" />
        </mxCell>
        <mxCell id="30j-dPES7vWr_bBKj393-130" value="" style="endArrow=classic;html=1;rounded=0;exitX=1;exitY=0.5;exitDx=0;exitDy=0;" parent="5vPPDH_FdWS2vNOrJjIZ-1" edge="1">
          <mxGeometry width="50" height="50" relative="1" as="geometry">
            <mxPoint x="510" y="540" as="sourcePoint" />
            <mxPoint x="560" y="540" as="targetPoint" />
          </mxGeometry>
        </mxCell>
        <mxCell id="30j-dPES7vWr_bBKj393-131" value="" style="endArrow=none;html=1;rounded=0;" parent="5vPPDH_FdWS2vNOrJjIZ-1" edge="1">
          <mxGeometry width="50" height="50" relative="1" as="geometry">
            <mxPoint x="520" y="550" as="sourcePoint" />
            <mxPoint x="540" y="530" as="targetPoint" />
          </mxGeometry>
        </mxCell>
        <mxCell id="30j-dPES7vWr_bBKj393-132" value="8" style="text;html=1;align=center;verticalAlign=middle;whiteSpace=wrap;rounded=0;" parent="5vPPDH_FdWS2vNOrJjIZ-1" vertex="1">
          <mxGeometry x="510" y="550" width="20" height="10" as="geometry" />
        </mxCell>
        <mxCell id="30j-dPES7vWr_bBKj393-133" value="" style="endArrow=classic;html=1;rounded=0;exitX=1;exitY=0.5;exitDx=0;exitDy=0;" parent="5vPPDH_FdWS2vNOrJjIZ-1" edge="1">
          <mxGeometry width="50" height="50" relative="1" as="geometry">
            <mxPoint x="510" y="600" as="sourcePoint" />
            <mxPoint x="560" y="600" as="targetPoint" />
          </mxGeometry>
        </mxCell>
        <mxCell id="30j-dPES7vWr_bBKj393-134" value="" style="endArrow=none;html=1;rounded=0;" parent="5vPPDH_FdWS2vNOrJjIZ-1" edge="1">
          <mxGeometry width="50" height="50" relative="1" as="geometry">
            <mxPoint x="520" y="610" as="sourcePoint" />
            <mxPoint x="540" y="590" as="targetPoint" />
          </mxGeometry>
        </mxCell>
        <mxCell id="30j-dPES7vWr_bBKj393-135" value="8" style="text;html=1;align=center;verticalAlign=middle;whiteSpace=wrap;rounded=0;" parent="5vPPDH_FdWS2vNOrJjIZ-1" vertex="1">
          <mxGeometry x="510" y="610" width="20" height="10" as="geometry" />
        </mxCell>
        <mxCell id="30j-dPES7vWr_bBKj393-136" value="" style="endArrow=none;html=1;rounded=0;fontColor=#FF0000;strokeColor=#FF0000;exitDx=0;exitDy=0;endFill=0;exitX=0.5;exitY=1;" parent="5vPPDH_FdWS2vNOrJjIZ-1" source="5vPPDH_FdWS2vNOrJjIZ-65" target="30j-dPES7vWr_bBKj393-139" edge="1">
          <mxGeometry width="50" height="50" relative="1" as="geometry">
            <mxPoint x="610" y="360" as="sourcePoint" />
            <mxPoint x="555" y="460" as="targetPoint" />
            <Array as="points">
              <mxPoint x="545" y="380" />
            </Array>
          </mxGeometry>
        </mxCell>
        <mxCell id="30j-dPES7vWr_bBKj393-137" value="" style="endArrow=classic;html=1;rounded=0;strokeColor=#FF0000;endFill=1;" parent="5vPPDH_FdWS2vNOrJjIZ-1" source="30j-dPES7vWr_bBKj393-139" edge="1">
          <mxGeometry width="50" height="50" relative="1" as="geometry">
            <mxPoint x="615" y="380" as="sourcePoint" />
            <mxPoint x="560" y="410" as="targetPoint" />
          </mxGeometry>
        </mxCell>
        <mxCell id="30j-dPES7vWr_bBKj393-138" value="" style="endArrow=none;html=1;rounded=0;fontColor=#FF0000;strokeColor=#FF0000;exitDx=0;exitDy=0;endFill=0;" parent="5vPPDH_FdWS2vNOrJjIZ-1" source="30j-dPES7vWr_bBKj393-141" target="30j-dPES7vWr_bBKj393-139" edge="1">
          <mxGeometry width="50" height="50" relative="1" as="geometry">
            <mxPoint x="565" y="590" as="sourcePoint" />
            <mxPoint x="545" y="320" as="targetPoint" />
            <Array as="points" />
          </mxGeometry>
        </mxCell>
        <mxCell id="30j-dPES7vWr_bBKj393-139" value="" style="shape=waypoint;sketch=0;fillStyle=solid;size=6;pointerEvents=1;points=[];fillColor=none;resizable=0;rotatable=0;perimeter=centerPerimeter;snapToPoint=1;strokeColor=#FF0000;" parent="5vPPDH_FdWS2vNOrJjIZ-1" vertex="1">
          <mxGeometry x="535" y="400" width="20" height="20" as="geometry" />
        </mxCell>
        <mxCell id="30j-dPES7vWr_bBKj393-140" value="" style="endArrow=classic;html=1;rounded=0;fontColor=#FF0000;strokeColor=#FF0000;endFill=1;" parent="5vPPDH_FdWS2vNOrJjIZ-1" source="30j-dPES7vWr_bBKj393-141" edge="1">
          <mxGeometry width="50" height="50" relative="1" as="geometry">
            <mxPoint x="545" y="410" as="sourcePoint" />
            <mxPoint x="560" y="590" as="targetPoint" />
            <Array as="points">
              <mxPoint x="545" y="590" />
            </Array>
          </mxGeometry>
        </mxCell>
        <mxCell id="30j-dPES7vWr_bBKj393-141" value="" style="shape=waypoint;sketch=0;fillStyle=solid;size=6;pointerEvents=1;points=[];fillColor=none;resizable=0;rotatable=0;perimeter=centerPerimeter;snapToPoint=1;strokeColor=#FF0000;" parent="5vPPDH_FdWS2vNOrJjIZ-1" vertex="1">
          <mxGeometry x="535" y="460" width="20" height="20" as="geometry" />
        </mxCell>
        <mxCell id="30j-dPES7vWr_bBKj393-142" value="" style="shape=waypoint;sketch=0;fillStyle=solid;size=6;pointerEvents=1;points=[];fillColor=none;resizable=0;rotatable=0;perimeter=centerPerimeter;snapToPoint=1;strokeColor=#FF0000;" parent="5vPPDH_FdWS2vNOrJjIZ-1" vertex="1">
          <mxGeometry x="535" y="520" width="20" height="20" as="geometry" />
        </mxCell>
        <mxCell id="30j-dPES7vWr_bBKj393-143" value="" style="endArrow=classic;html=1;rounded=0;strokeColor=#FF0000;endFill=1;" parent="5vPPDH_FdWS2vNOrJjIZ-1" edge="1">
          <mxGeometry width="50" height="50" relative="1" as="geometry">
            <mxPoint x="545" y="469.86" as="sourcePoint" />
            <mxPoint x="560" y="470" as="targetPoint" />
          </mxGeometry>
        </mxCell>
        <mxCell id="30j-dPES7vWr_bBKj393-144" value="" style="endArrow=classic;html=1;rounded=0;strokeColor=#FF0000;endFill=1;" parent="5vPPDH_FdWS2vNOrJjIZ-1" edge="1">
          <mxGeometry width="50" height="50" relative="1" as="geometry">
            <mxPoint x="545" y="530" as="sourcePoint" />
            <mxPoint x="560" y="530" as="targetPoint" />
          </mxGeometry>
        </mxCell>
        <mxCell id="30j-dPES7vWr_bBKj393-146" value="" style="endArrow=classic;html=1;rounded=0;exitX=0.5;exitY=0;exitDx=0;exitDy=0;entryX=0.5;entryY=1;entryDx=0;entryDy=0;" parent="5vPPDH_FdWS2vNOrJjIZ-1" source="30j-dPES7vWr_bBKj393-1" target="30j-dPES7vWr_bBKj393-14" edge="1">
          <mxGeometry width="50" height="50" relative="1" as="geometry">
            <mxPoint x="785" y="290" as="sourcePoint" />
            <mxPoint x="835" y="240" as="targetPoint" />
          </mxGeometry>
        </mxCell>
        <mxCell id="30j-dPES7vWr_bBKj393-147" value="" style="endArrow=classic;html=1;rounded=0;strokeColor=#FFB366;entryX=0.5;entryY=1;entryDx=0;entryDy=0;exitX=0.5;exitY=0;exitDx=0;exitDy=0;" parent="5vPPDH_FdWS2vNOrJjIZ-1" source="5vPPDH_FdWS2vNOrJjIZ-76" target="5vPPDH_FdWS2vNOrJjIZ-3" edge="1">
          <mxGeometry width="50" height="50" relative="1" as="geometry">
            <mxPoint x="150" y="499.52" as="sourcePoint" />
            <mxPoint x="190" y="499.52" as="targetPoint" />
            <Array as="points" />
          </mxGeometry>
        </mxCell>
        <mxCell id="30j-dPES7vWr_bBKj393-148" value="" style="endArrow=classic;startArrow=classic;html=1;rounded=0;entryX=0;entryY=0.5;entryDx=0;entryDy=0;" parent="5vPPDH_FdWS2vNOrJjIZ-1" target="5vPPDH_FdWS2vNOrJjIZ-93" edge="1">
          <mxGeometry width="50" height="50" relative="1" as="geometry">
            <mxPoint x="430" y="175" as="sourcePoint" />
            <mxPoint x="429.43" y="120" as="targetPoint" />
          </mxGeometry>
        </mxCell>
        <mxCell id="30j-dPES7vWr_bBKj393-149" value="USB" style="edgeLabel;html=1;align=center;verticalAlign=middle;resizable=0;points=[];" parent="30j-dPES7vWr_bBKj393-148" vertex="1" connectable="0">
          <mxGeometry relative="1" as="geometry">
            <mxPoint y="-10" as="offset" />
          </mxGeometry>
        </mxCell>
        <mxCell id="30j-dPES7vWr_bBKj393-150" value="" style="endArrow=classic;startArrow=classic;html=1;rounded=0;entryX=0.5;entryY=0;entryDx=0;entryDy=0;" parent="5vPPDH_FdWS2vNOrJjIZ-1" target="30j-dPES7vWr_bBKj393-14" edge="1">
          <mxGeometry width="50" height="50" relative="1" as="geometry">
            <mxPoint x="430" y="220" as="sourcePoint" />
            <mxPoint x="490" y="220" as="targetPoint" />
            <Array as="points">
              <mxPoint x="690" y="220" />
            </Array>
          </mxGeometry>
        </mxCell>
        <mxCell id="30j-dPES7vWr_bBKj393-151" value="USB" style="edgeLabel;html=1;align=center;verticalAlign=middle;resizable=0;points=[];" parent="30j-dPES7vWr_bBKj393-150" vertex="1" connectable="0">
          <mxGeometry relative="1" as="geometry">
            <mxPoint x="-110" y="-10" as="offset" />
          </mxGeometry>
        </mxCell>
        <mxCell id="30j-dPES7vWr_bBKj393-152" value="USB4" style="rounded=0;whiteSpace=wrap;html=1;" parent="5vPPDH_FdWS2vNOrJjIZ-1" vertex="1">
          <mxGeometry x="380" y="250" width="50" height="20" as="geometry" />
        </mxCell>
        <mxCell id="30j-dPES7vWr_bBKj393-153" value="" style="endArrow=classic;startArrow=classic;html=1;rounded=0;entryX=0;entryY=0.5;entryDx=0;entryDy=0;" parent="5vPPDH_FdWS2vNOrJjIZ-1" edge="1">
          <mxGeometry width="50" height="50" relative="1" as="geometry">
            <mxPoint x="430" y="260" as="sourcePoint" />
            <mxPoint x="490" y="260" as="targetPoint" />
          </mxGeometry>
        </mxCell>
        <mxCell id="30j-dPES7vWr_bBKj393-154" value="USB" style="edgeLabel;html=1;align=center;verticalAlign=middle;resizable=0;points=[];" parent="30j-dPES7vWr_bBKj393-153" vertex="1" connectable="0">
          <mxGeometry relative="1" as="geometry">
            <mxPoint y="-10" as="offset" />
          </mxGeometry>
        </mxCell>
        <mxCell id="30j-dPES7vWr_bBKj393-157" value="" style="shape=waypoint;sketch=0;fillStyle=solid;size=6;pointerEvents=1;points=[];fillColor=none;resizable=0;rotatable=0;perimeter=centerPerimeter;snapToPoint=1;" parent="5vPPDH_FdWS2vNOrJjIZ-1" vertex="1">
          <mxGeometry x="950" y="530" width="20" height="20" as="geometry" />
        </mxCell>
        <mxCell id="30j-dPES7vWr_bBKj393-158" value="" style="shape=waypoint;sketch=0;fillStyle=solid;size=6;pointerEvents=1;points=[];fillColor=none;resizable=0;rotatable=0;perimeter=centerPerimeter;snapToPoint=1;" parent="5vPPDH_FdWS2vNOrJjIZ-1" vertex="1">
          <mxGeometry x="950" y="470" width="20" height="20" as="geometry" />
        </mxCell>
        <mxCell id="30j-dPES7vWr_bBKj393-161" value="" style="shape=waypoint;sketch=0;fillStyle=solid;size=6;pointerEvents=1;points=[];fillColor=none;resizable=0;rotatable=0;perimeter=centerPerimeter;snapToPoint=1;" parent="5vPPDH_FdWS2vNOrJjIZ-1" vertex="1">
          <mxGeometry x="950" y="410" width="20" height="20" as="geometry" />
        </mxCell>
        <mxCell id="30j-dPES7vWr_bBKj393-162" value="" style="endArrow=classic;html=1;rounded=0;dashed=1;entryX=1;entryY=0.5;entryDx=0;entryDy=0;" parent="5vPPDH_FdWS2vNOrJjIZ-1" target="5vPPDH_FdWS2vNOrJjIZ-9" edge="1">
          <mxGeometry width="50" height="50" relative="1" as="geometry">
            <mxPoint x="960" y="420" as="sourcePoint" />
            <mxPoint x="1080" y="370" as="targetPoint" />
          </mxGeometry>
        </mxCell>
        <mxCell id="30j-dPES7vWr_bBKj393-163" value="" style="endArrow=classic;html=1;rounded=0;dashed=1;entryX=1;entryY=0.5;entryDx=0;entryDy=0;" parent="5vPPDH_FdWS2vNOrJjIZ-1" edge="1">
          <mxGeometry width="50" height="50" relative="1" as="geometry">
            <mxPoint x="960" y="479.83" as="sourcePoint" />
            <mxPoint x="930" y="479.83" as="targetPoint" />
          </mxGeometry>
        </mxCell>
        <mxCell id="30j-dPES7vWr_bBKj393-164" value="" style="endArrow=classic;html=1;rounded=0;dashed=1;entryX=1;entryY=0.5;entryDx=0;entryDy=0;" parent="5vPPDH_FdWS2vNOrJjIZ-1" edge="1">
          <mxGeometry width="50" height="50" relative="1" as="geometry">
            <mxPoint x="960" y="540" as="sourcePoint" />
            <mxPoint x="930" y="540" as="targetPoint" />
          </mxGeometry>
        </mxCell>
        <mxCell id="30j-dPES7vWr_bBKj393-165" value="" style="endArrow=classic;html=1;rounded=0;dashed=1;entryX=1;entryY=0.5;entryDx=0;entryDy=0;exitX=1;exitY=0.5;exitDx=0;exitDy=0;" parent="5vPPDH_FdWS2vNOrJjIZ-1" source="5vPPDH_FdWS2vNOrJjIZ-93" edge="1">
          <mxGeometry width="50" height="50" relative="1" as="geometry">
            <mxPoint x="960" y="600" as="sourcePoint" />
            <mxPoint x="930" y="600" as="targetPoint" />
            <Array as="points">
              <mxPoint x="960" y="175" />
              <mxPoint x="960" y="600" />
            </Array>
          </mxGeometry>
        </mxCell>
        <mxCell id="30j-dPES7vWr_bBKj393-166" value="Ключи&amp;nbsp;&lt;span style=&quot;background-color: initial;&quot;&gt;питания группы&amp;nbsp;&lt;/span&gt;&lt;span style=&quot;background-color: initial;&quot;&gt;№1&lt;/span&gt;" style="rounded=0;whiteSpace=wrap;html=1;" parent="5vPPDH_FdWS2vNOrJjIZ-1" vertex="1">
          <mxGeometry x="1180" y="240" width="90" height="40" as="geometry" />
        </mxCell>
        <mxCell id="30j-dPES7vWr_bBKj393-168" value="&lt;div&gt;Разъём&lt;/div&gt;&lt;div&gt;USB&lt;/div&gt;" style="rounded=0;whiteSpace=wrap;html=1;" parent="5vPPDH_FdWS2vNOrJjIZ-1" vertex="1">
          <mxGeometry x="1185" y="300" width="80" height="40" as="geometry" />
        </mxCell>
        <mxCell id="30j-dPES7vWr_bBKj393-169" value="&lt;div&gt;Разъём&lt;/div&gt;&lt;div&gt;Питания ДТ&lt;/div&gt;" style="rounded=0;whiteSpace=wrap;html=1;" parent="5vPPDH_FdWS2vNOrJjIZ-1" vertex="1">
          <mxGeometry x="1180" y="360" width="90" height="40" as="geometry" />
        </mxCell>
        <mxCell id="30j-dPES7vWr_bBKj393-171" value="&lt;div&gt;Разъём&lt;/div&gt;&lt;div&gt;измерения&lt;/div&gt;" style="rounded=0;whiteSpace=wrap;html=1;" parent="5vPPDH_FdWS2vNOrJjIZ-1" vertex="1">
          <mxGeometry x="1180" y="400" width="90" height="40" as="geometry" />
        </mxCell>
        <mxCell id="30j-dPES7vWr_bBKj393-172" value="Клеммник 305-021-12" style="text;whiteSpace=wrap;" parent="5vPPDH_FdWS2vNOrJjIZ-1" vertex="1">
          <mxGeometry x="1280" y="360" width="150" height="40" as="geometry" />
        </mxCell>
        <mxCell id="30j-dPES7vWr_bBKj393-173" value="Клеммник 305-021-12" style="text;whiteSpace=wrap;" parent="5vPPDH_FdWS2vNOrJjIZ-1" vertex="1">
          <mxGeometry x="1280" y="400" width="150" height="40" as="geometry" />
        </mxCell>
        <mxCell id="30j-dPES7vWr_bBKj393-174" value="Разъем USB B SMD &#xa;1734346-1" style="text;whiteSpace=wrap;" parent="5vPPDH_FdWS2vNOrJjIZ-1" vertex="1">
          <mxGeometry x="1280" y="300" width="150" height="40" as="geometry" />
        </mxCell>
      </root>
    </mxGraphModel>
  </diagram>
</mxfile>
